<svg width="120" height="150" viewBox="0 0 163 228" fill="none" xmlns="http://www.w3.org/2000/svg">
<circle cx="81.5" cy="71.25" r="71.25" fill="#5CCEEB"/>
<path d="M107.612 72.2678L69.9141 109.854L44.8563 84.7227L82.554 47.136L101.384 40.8901L113.913 53.456L107.612 72.2678Z" fill="#DEF5FB"/>
<circle cx="98.0308" cy="56.7623" r="4.43121" fill="#5CCEEB"/>
<path d="M14.3145 190.949C14.3145 192.754 13.6628 194.176 12.3594 195.215C11.0651 196.254 9.26042 196.773 6.94531 196.773C4.8125 196.773 2.92578 196.372 1.28516 195.57V191.633C2.63411 192.234 3.77344 192.658 4.70312 192.904C5.64193 193.15 6.4987 193.273 7.27344 193.273C8.20312 193.273 8.91406 193.096 9.40625 192.74C9.90755 192.385 10.1582 191.856 10.1582 191.154C10.1582 190.762 10.0488 190.416 9.83008 190.115C9.61133 189.805 9.28776 189.509 8.85938 189.227C8.4401 188.944 7.57878 188.493 6.27539 187.873C5.05404 187.299 4.13802 186.747 3.52734 186.219C2.91667 185.69 2.42904 185.075 2.06445 184.373C1.69987 183.671 1.51758 182.851 1.51758 181.912C1.51758 180.144 2.11458 178.754 3.30859 177.742C4.51172 176.73 6.17057 176.225 8.28516 176.225C9.32422 176.225 10.3132 176.348 11.252 176.594C12.1999 176.84 13.1888 177.186 14.2188 177.633L12.8516 180.928C11.7852 180.49 10.901 180.185 10.1992 180.012C9.50651 179.839 8.82292 179.752 8.14844 179.752C7.34635 179.752 6.73112 179.939 6.30273 180.312C5.87435 180.686 5.66016 181.174 5.66016 181.775C5.66016 182.149 5.74674 182.477 5.91992 182.76C6.0931 183.033 6.36654 183.302 6.74023 183.566C7.12305 183.822 8.02083 184.286 9.43359 184.961C11.3021 185.854 12.5827 186.752 13.2754 187.654C13.9681 188.548 14.3145 189.646 14.3145 190.949ZM33.0564 196.5H28.8318V187.873H20.9158V196.5H16.6775V176.512H20.9158V184.346H28.8318V176.512H33.0564V196.5ZM54.9976 186.479C54.9976 189.787 54.1773 192.33 52.5366 194.107C50.896 195.885 48.5445 196.773 45.482 196.773C42.4195 196.773 40.0679 195.885 38.4273 194.107C36.7866 192.33 35.9663 189.778 35.9663 186.451C35.9663 183.124 36.7866 180.586 38.4273 178.836C40.077 177.077 42.4377 176.197 45.5093 176.197C48.5809 176.197 50.9279 177.081 52.5503 178.85C54.1818 180.618 54.9976 183.161 54.9976 186.479ZM40.4097 186.479C40.4097 188.712 40.8335 190.393 41.6812 191.523C42.5288 192.654 43.7958 193.219 45.482 193.219C48.8635 193.219 50.5542 190.972 50.5542 186.479C50.5542 181.976 48.8726 179.725 45.5093 179.725C43.8231 179.725 42.5516 180.294 41.6948 181.434C40.8381 182.564 40.4097 184.245 40.4097 186.479ZM62.1184 185.918H63.513C64.8164 185.918 65.7916 185.663 66.4388 185.152C67.0859 184.633 67.4095 183.881 67.4095 182.896C67.4095 181.903 67.136 181.169 66.5891 180.695C66.0514 180.221 65.2037 179.984 64.0462 179.984H62.1184V185.918ZM71.6888 182.746C71.6888 184.897 71.0143 186.542 69.6653 187.682C68.3255 188.821 66.416 189.391 63.9368 189.391H62.1184V196.5H57.8802V176.512H64.2649C66.6894 176.512 68.5305 177.036 69.7884 178.084C71.0553 179.123 71.6888 180.677 71.6888 182.746ZM83.2803 196.5L76.4991 178.781H76.3897C76.5173 180.185 76.5811 181.853 76.5811 183.785V196.5H74.4346V176.512H77.9346L84.2647 193H84.3741L90.7588 176.512H94.2315V196.5H91.9073V183.621C91.9073 182.145 91.9711 180.54 92.0987 178.809H91.9893L85.1534 196.5H83.2803ZM115.817 186.479C115.817 189.678 115.006 192.193 113.384 194.025C111.77 195.857 109.524 196.773 106.643 196.773C103.699 196.773 101.425 195.876 99.8211 194.08C98.226 192.275 97.4285 189.732 97.4285 186.451C97.4285 183.197 98.2306 180.677 99.8348 178.891C101.439 177.095 103.718 176.197 106.671 176.197C109.542 176.197 111.784 177.109 113.397 178.932C115.011 180.755 115.817 183.27 115.817 186.479ZM99.8895 186.479C99.8895 189.186 100.464 191.241 101.612 192.645C102.77 194.039 104.447 194.736 106.643 194.736C108.858 194.736 110.531 194.039 111.661 192.645C112.791 191.25 113.356 189.195 113.356 186.479C113.356 183.79 112.791 181.753 111.661 180.367C110.54 178.973 108.876 178.275 106.671 178.275C104.456 178.275 102.77 178.977 101.612 180.381C100.464 181.775 99.8895 183.808 99.8895 186.479ZM121.352 188.188V196.5H119.028V176.512H124.51C126.962 176.512 128.771 176.981 129.938 177.92C131.114 178.859 131.702 180.271 131.702 182.158C131.702 184.801 130.362 186.588 127.682 187.518L133.11 196.5H130.362L125.522 188.188H121.352ZM121.352 186.191H124.538C126.178 186.191 127.381 185.868 128.147 185.221C128.913 184.564 129.295 183.585 129.295 182.281C129.295 180.96 128.904 180.007 128.12 179.424C127.345 178.84 126.096 178.549 124.374 178.549H121.352V186.191ZM146.219 196.5H135.076V176.512H146.219V178.576H137.401V185.016H145.686V187.066H137.401V194.422H146.219V196.5Z" fill="#12292F"/>
<path d="M8.7832 210.221C8.7832 210.729 8.65625 211.162 8.40234 211.521C8.15234 211.877 7.80078 212.148 7.34766 212.336C6.89453 212.523 6.36133 212.617 5.74805 212.617C5.42383 212.617 5.11719 212.602 4.82812 212.57C4.53906 212.539 4.27344 212.494 4.03125 212.436C3.78906 212.377 3.57617 212.305 3.39258 212.219V211.264C3.68555 211.385 4.04297 211.498 4.46484 211.604C4.88672 211.705 5.32812 211.756 5.78906 211.756C6.21875 211.756 6.58203 211.699 6.87891 211.586C7.17578 211.469 7.40039 211.303 7.55273 211.088C7.70898 210.869 7.78711 210.607 7.78711 210.303C7.78711 210.01 7.72266 209.766 7.59375 209.57C7.46484 209.371 7.25 209.191 6.94922 209.031C6.65234 208.867 6.24609 208.693 5.73047 208.51C5.36719 208.381 5.04688 208.24 4.76953 208.088C4.49219 207.932 4.25977 207.756 4.07227 207.561C3.88477 207.365 3.74219 207.139 3.64453 206.881C3.55078 206.623 3.50391 206.328 3.50391 205.996C3.50391 205.539 3.61914 205.148 3.84961 204.824C4.08398 204.496 4.40625 204.246 4.81641 204.074C5.23047 203.898 5.70508 203.811 6.24023 203.811C6.69727 203.811 7.11914 203.854 7.50586 203.939C7.89648 204.025 8.25391 204.141 8.57812 204.285L8.26758 205.141C7.95898 205.012 7.63086 204.904 7.2832 204.818C6.93945 204.732 6.58398 204.689 6.2168 204.689C5.84961 204.689 5.53906 204.744 5.28516 204.854C5.03516 204.959 4.84375 205.109 4.71094 205.305C4.57812 205.5 4.51172 205.732 4.51172 206.002C4.51172 206.303 4.57422 206.553 4.69922 206.752C4.82812 206.951 5.03125 207.129 5.30859 207.285C5.58984 207.438 5.96094 207.598 6.42188 207.766C6.92578 207.949 7.35352 208.145 7.70508 208.352C8.05664 208.555 8.32422 208.805 8.50781 209.102C8.69141 209.395 8.7832 209.768 8.7832 210.221ZM12.8613 205.961C13.4082 205.961 13.877 206.082 14.2676 206.324C14.6582 206.566 14.957 206.906 15.1641 207.344C15.3711 207.777 15.4746 208.285 15.4746 208.867V209.471H11.0391C11.0508 210.225 11.2383 210.799 11.6016 211.193C11.9648 211.588 12.4766 211.785 13.1367 211.785C13.543 211.785 13.9023 211.748 14.2148 211.674C14.5273 211.6 14.8516 211.49 15.1875 211.346V212.201C14.8633 212.346 14.541 212.451 14.2207 212.518C13.9043 212.584 13.5293 212.617 13.0957 212.617C12.4785 212.617 11.9395 212.492 11.4785 212.242C11.0215 211.988 10.666 211.617 10.4121 211.129C10.1582 210.641 10.0312 210.043 10.0312 209.336C10.0312 208.645 10.1465 208.047 10.377 207.543C10.6113 207.035 10.9395 206.645 11.3613 206.371C11.7871 206.098 12.2871 205.961 12.8613 205.961ZM12.8496 206.758C12.3301 206.758 11.916 206.928 11.6074 207.268C11.2988 207.607 11.1152 208.082 11.0566 208.691H14.4551C14.4512 208.309 14.3906 207.973 14.2734 207.684C14.1602 207.391 13.9863 207.164 13.752 207.004C13.5176 206.84 13.2168 206.758 12.8496 206.758ZM19.5293 205.973C20.2949 205.973 20.8633 206.145 21.2344 206.488C21.6055 206.832 21.791 207.381 21.791 208.135V212.5H21.082L20.8945 211.551H20.8477C20.668 211.785 20.4805 211.982 20.2852 212.143C20.0898 212.299 19.8633 212.418 19.6055 212.5C19.3516 212.578 19.0391 212.617 18.668 212.617C18.2773 212.617 17.9297 212.549 17.625 212.412C17.3242 212.275 17.0859 212.068 16.9102 211.791C16.7383 211.514 16.6523 211.162 16.6523 210.736C16.6523 210.096 16.9062 209.604 17.4141 209.26C17.9219 208.916 18.6953 208.729 19.7344 208.697L20.8418 208.65V208.258C20.8418 207.703 20.7227 207.314 20.4844 207.092C20.2461 206.869 19.9102 206.758 19.4766 206.758C19.1406 206.758 18.8203 206.807 18.5156 206.904C18.2109 207.002 17.9219 207.117 17.6484 207.25L17.3496 206.512C17.6387 206.363 17.9707 206.236 18.3457 206.131C18.7207 206.025 19.1152 205.973 19.5293 205.973ZM20.8301 209.336L19.8516 209.377C19.0508 209.408 18.4863 209.539 18.1582 209.77C17.8301 210 17.666 210.326 17.666 210.748C17.666 211.115 17.7773 211.387 18 211.562C18.2227 211.738 18.5176 211.826 18.8848 211.826C19.4551 211.826 19.9219 211.668 20.2852 211.352C20.6484 211.035 20.8301 210.561 20.8301 209.928V209.336ZM26.7129 205.961C26.8418 205.961 26.9766 205.969 27.1172 205.984C27.2578 205.996 27.3828 206.014 27.4922 206.037L27.3691 206.939C27.2637 206.912 27.1465 206.891 27.0176 206.875C26.8887 206.859 26.7676 206.852 26.6543 206.852C26.3965 206.852 26.1523 206.904 25.9219 207.01C25.6953 207.111 25.4961 207.26 25.3242 207.455C25.1523 207.646 25.0176 207.879 24.9199 208.152C24.8223 208.422 24.7734 208.723 24.7734 209.055V212.5H23.7949V206.078H24.6035L24.709 207.262H24.75C24.8828 207.023 25.043 206.807 25.2305 206.611C25.418 206.412 25.6348 206.254 25.8809 206.137C26.1309 206.02 26.4082 205.961 26.7129 205.961ZM31.2773 212.617C30.6992 212.617 30.1895 212.498 29.748 212.26C29.3066 212.021 28.9629 211.658 28.7168 211.17C28.4707 210.682 28.3477 210.066 28.3477 209.324C28.3477 208.547 28.4766 207.912 28.7344 207.42C28.9961 206.924 29.3555 206.557 29.8125 206.318C30.2695 206.08 30.7891 205.961 31.3711 205.961C31.6914 205.961 32 205.994 32.2969 206.061C32.5977 206.123 32.8438 206.203 33.0352 206.301L32.7422 207.115C32.5469 207.037 32.3203 206.967 32.0625 206.904C31.8086 206.842 31.5703 206.811 31.3477 206.811C30.9023 206.811 30.5312 206.906 30.2344 207.098C29.9414 207.289 29.7207 207.57 29.5723 207.941C29.4277 208.312 29.3555 208.77 29.3555 209.312C29.3555 209.832 29.4258 210.275 29.5664 210.643C29.7109 211.01 29.9238 211.291 30.2051 211.486C30.4902 211.678 30.8457 211.773 31.2715 211.773C31.6113 211.773 31.918 211.738 32.1914 211.668C32.4648 211.594 32.7129 211.508 32.9355 211.41V212.277C32.7207 212.387 32.4805 212.471 32.2148 212.529C31.9531 212.588 31.6406 212.617 31.2773 212.617ZM35.4316 203.383V206.107C35.4316 206.264 35.4277 206.422 35.4199 206.582C35.4121 206.738 35.3984 206.883 35.3789 207.016H35.4434C35.5762 206.789 35.7441 206.6 35.9473 206.447C36.1543 206.291 36.3887 206.174 36.6504 206.096C36.9121 206.014 37.1895 205.973 37.4824 205.973C37.998 205.973 38.4277 206.055 38.7715 206.219C39.1191 206.383 39.3789 206.637 39.5508 206.98C39.7266 207.324 39.8145 207.77 39.8145 208.316V212.5H38.8535V208.381C38.8535 207.846 38.7305 207.445 38.4844 207.18C38.2422 206.914 37.8691 206.781 37.3652 206.781C36.8887 206.781 36.5078 206.873 36.2227 207.057C35.9414 207.236 35.7383 207.502 35.6133 207.854C35.4922 208.205 35.4316 208.635 35.4316 209.143V212.5H34.459V203.383H35.4316ZM46.793 203.377H47.6074V215.406H46.793V203.377ZM58.459 204.689C57.9863 204.689 57.5605 204.771 57.1816 204.936C56.8066 205.096 56.4863 205.33 56.2207 205.639C55.959 205.943 55.7578 206.312 55.6172 206.746C55.4766 207.18 55.4062 207.668 55.4062 208.211C55.4062 208.93 55.5176 209.555 55.7402 210.086C55.9668 210.613 56.3027 211.021 56.748 211.311C57.1973 211.6 57.7578 211.744 58.4297 211.744C58.8125 211.744 59.1719 211.713 59.5078 211.65C59.8477 211.584 60.1777 211.502 60.498 211.404V212.271C60.1855 212.389 59.8574 212.475 59.5137 212.529C59.1699 212.588 58.7617 212.617 58.2891 212.617C57.418 212.617 56.6895 212.438 56.1035 212.078C55.5215 211.715 55.084 211.203 54.791 210.543C54.502 209.883 54.3574 209.104 54.3574 208.205C54.3574 207.557 54.4473 206.965 54.627 206.43C54.8105 205.891 55.0762 205.426 55.4238 205.035C55.7754 204.645 56.2051 204.344 56.7129 204.133C57.2246 203.918 57.8105 203.811 58.4707 203.811C58.9043 203.811 59.3223 203.854 59.7246 203.939C60.127 204.025 60.4902 204.148 60.8145 204.309L60.416 205.152C60.1426 205.027 59.8418 204.92 59.5137 204.83C59.1895 204.736 58.8379 204.689 58.459 204.689ZM67.7461 209.277C67.7461 209.805 67.6777 210.275 67.541 210.689C67.4043 211.104 67.207 211.453 66.9492 211.738C66.6914 212.023 66.3789 212.242 66.0117 212.395C65.6484 212.543 65.2363 212.617 64.7754 212.617C64.3457 212.617 63.9512 212.543 63.5918 212.395C63.2363 212.242 62.9277 212.023 62.666 211.738C62.4082 211.453 62.207 211.104 62.0625 210.689C61.9219 210.275 61.8516 209.805 61.8516 209.277C61.8516 208.574 61.9707 207.977 62.209 207.484C62.4473 206.988 62.7871 206.611 63.2285 206.354C63.6738 206.092 64.2031 205.961 64.8164 205.961C65.4023 205.961 65.9141 206.092 66.3516 206.354C66.793 206.615 67.1348 206.994 67.377 207.49C67.623 207.982 67.7461 208.578 67.7461 209.277ZM62.8594 209.277C62.8594 209.793 62.9277 210.24 63.0645 210.619C63.2012 210.998 63.4121 211.291 63.6973 211.498C63.9824 211.705 64.3496 211.809 64.7988 211.809C65.2441 211.809 65.6094 211.705 65.8945 211.498C66.1836 211.291 66.3965 210.998 66.5332 210.619C66.6699 210.24 66.7383 209.793 66.7383 209.277C66.7383 208.766 66.6699 208.324 66.5332 207.953C66.3965 207.578 66.1855 207.289 65.9004 207.086C65.6152 206.883 65.2461 206.781 64.793 206.781C64.125 206.781 63.6348 207.002 63.3223 207.443C63.0137 207.885 62.8594 208.496 62.8594 209.277ZM76.4004 205.961C77.1074 205.961 77.6406 206.146 78 206.518C78.3594 206.885 78.5391 207.477 78.5391 208.293V212.5H77.5781V208.34C77.5781 207.82 77.4648 207.432 77.2383 207.174C77.0156 206.912 76.6836 206.781 76.2422 206.781C75.6211 206.781 75.1699 206.961 74.8887 207.32C74.6074 207.68 74.4668 208.209 74.4668 208.908V212.5H73.5V208.34C73.5 207.992 73.4492 207.703 73.3477 207.473C73.25 207.242 73.1016 207.07 72.9023 206.957C72.707 206.84 72.459 206.781 72.1582 206.781C71.7324 206.781 71.3906 206.869 71.1328 207.045C70.875 207.221 70.6875 207.482 70.5703 207.83C70.457 208.174 70.4004 208.598 70.4004 209.102V212.5H69.4277V206.078H70.2129L70.3594 206.986H70.4121C70.541 206.764 70.7031 206.576 70.8984 206.424C71.0938 206.271 71.3125 206.156 71.5547 206.078C71.7969 206 72.0547 205.961 72.3281 205.961C72.8164 205.961 73.2246 206.053 73.5527 206.236C73.8848 206.416 74.125 206.691 74.2734 207.062H74.3262C74.5371 206.691 74.8262 206.416 75.1934 206.236C75.5605 206.053 75.9629 205.961 76.4004 205.961ZM83.5547 205.961C84.3555 205.961 84.9941 206.236 85.4707 206.787C85.9473 207.338 86.1855 208.166 86.1855 209.271C86.1855 210.002 86.0762 210.615 85.8574 211.111C85.6387 211.607 85.3301 211.982 84.9316 212.236C84.5371 212.49 84.0703 212.617 83.5312 212.617C83.1914 212.617 82.8926 212.572 82.6348 212.482C82.377 212.393 82.1562 212.271 81.9727 212.119C81.7891 211.967 81.6367 211.801 81.5156 211.621H81.4453C81.457 211.773 81.4707 211.957 81.4863 212.172C81.5059 212.387 81.5156 212.574 81.5156 212.734V215.371H80.5371V206.078H81.3398L81.4688 207.027H81.5156C81.6406 206.832 81.793 206.654 81.9727 206.494C82.1523 206.33 82.3711 206.201 82.6289 206.107C82.8906 206.01 83.1992 205.961 83.5547 205.961ZM83.3848 206.781C82.9395 206.781 82.5801 206.867 82.3066 207.039C82.0371 207.211 81.8398 207.469 81.7148 207.812C81.5898 208.152 81.5234 208.58 81.5156 209.096V209.283C81.5156 209.826 81.5742 210.285 81.6914 210.66C81.8125 211.035 82.0098 211.32 82.2832 211.516C82.5605 211.711 82.9316 211.809 83.3965 211.809C83.7949 211.809 84.127 211.701 84.3926 211.486C84.6582 211.271 84.8555 210.973 84.9844 210.59C85.1172 210.203 85.1836 209.76 85.1836 209.26C85.1836 208.502 85.0352 207.9 84.7383 207.455C84.4453 207.006 83.9941 206.781 83.3848 206.781ZM90.2871 205.973C91.0527 205.973 91.6211 206.145 91.9922 206.488C92.3633 206.832 92.5488 207.381 92.5488 208.135V212.5H91.8398L91.6523 211.551H91.6055C91.4258 211.785 91.2383 211.982 91.043 212.143C90.8477 212.299 90.6211 212.418 90.3633 212.5C90.1094 212.578 89.7969 212.617 89.4258 212.617C89.0352 212.617 88.6875 212.549 88.3828 212.412C88.082 212.275 87.8438 212.068 87.668 211.791C87.4961 211.514 87.4102 211.162 87.4102 210.736C87.4102 210.096 87.6641 209.604 88.1719 209.26C88.6797 208.916 89.4531 208.729 90.4922 208.697L91.5996 208.65V208.258C91.5996 207.703 91.4805 207.314 91.2422 207.092C91.0039 206.869 90.668 206.758 90.2344 206.758C89.8984 206.758 89.5781 206.807 89.2734 206.904C88.9688 207.002 88.6797 207.117 88.4062 207.25L88.1074 206.512C88.3965 206.363 88.7285 206.236 89.1035 206.131C89.4785 206.025 89.873 205.973 90.2871 205.973ZM91.5879 209.336L90.6094 209.377C89.8086 209.408 89.2441 209.539 88.916 209.77C88.5879 210 88.4238 210.326 88.4238 210.748C88.4238 211.115 88.5352 211.387 88.7578 211.562C88.9805 211.738 89.2754 211.826 89.6426 211.826C90.2129 211.826 90.6797 211.668 91.043 211.352C91.4062 211.035 91.5879 210.561 91.5879 209.928V209.336ZM97.4707 205.961C97.5996 205.961 97.7344 205.969 97.875 205.984C98.0156 205.996 98.1406 206.014 98.25 206.037L98.127 206.939C98.0215 206.912 97.9043 206.891 97.7754 206.875C97.6465 206.859 97.5254 206.852 97.4121 206.852C97.1543 206.852 96.9102 206.904 96.6797 207.01C96.4531 207.111 96.2539 207.26 96.082 207.455C95.9102 207.646 95.7754 207.879 95.6777 208.152C95.5801 208.422 95.5312 208.723 95.5312 209.055V212.5H94.5527V206.078H95.3613L95.4668 207.262H95.5078C95.6406 207.023 95.8008 206.807 95.9883 206.611C96.1758 206.412 96.3926 206.254 96.6387 206.137C96.8887 206.02 97.166 205.961 97.4707 205.961ZM101.936 205.961C102.482 205.961 102.951 206.082 103.342 206.324C103.732 206.566 104.031 206.906 104.238 207.344C104.445 207.777 104.549 208.285 104.549 208.867V209.471H100.113C100.125 210.225 100.312 210.799 100.676 211.193C101.039 211.588 101.551 211.785 102.211 211.785C102.617 211.785 102.977 211.748 103.289 211.674C103.602 211.6 103.926 211.49 104.262 211.346V212.201C103.938 212.346 103.615 212.451 103.295 212.518C102.979 212.584 102.604 212.617 102.17 212.617C101.553 212.617 101.014 212.492 100.553 212.242C100.096 211.988 99.7402 211.617 99.4863 211.129C99.2324 210.641 99.1055 210.043 99.1055 209.336C99.1055 208.645 99.2207 208.047 99.4512 207.543C99.6855 207.035 100.014 206.645 100.436 206.371C100.861 206.098 101.361 205.961 101.936 205.961ZM101.924 206.758C101.404 206.758 100.99 206.928 100.682 207.268C100.373 207.607 100.189 208.082 100.131 208.691H103.529C103.525 208.309 103.465 207.973 103.348 207.684C103.234 207.391 103.061 207.164 102.826 207.004C102.592 206.84 102.291 206.758 101.924 206.758ZM111.176 203.377H111.99V215.406H111.176V203.377ZM124.014 210.221C124.014 210.729 123.887 211.162 123.633 211.521C123.383 211.877 123.031 212.148 122.578 212.336C122.125 212.523 121.592 212.617 120.979 212.617C120.654 212.617 120.348 212.602 120.059 212.57C119.77 212.539 119.504 212.494 119.262 212.436C119.02 212.377 118.807 212.305 118.623 212.219V211.264C118.916 211.385 119.273 211.498 119.695 211.604C120.117 211.705 120.559 211.756 121.02 211.756C121.449 211.756 121.812 211.699 122.109 211.586C122.406 211.469 122.631 211.303 122.783 211.088C122.939 210.869 123.018 210.607 123.018 210.303C123.018 210.01 122.953 209.766 122.824 209.57C122.695 209.371 122.48 209.191 122.18 209.031C121.883 208.867 121.477 208.693 120.961 208.51C120.598 208.381 120.277 208.24 120 208.088C119.723 207.932 119.49 207.756 119.303 207.561C119.115 207.365 118.973 207.139 118.875 206.881C118.781 206.623 118.734 206.328 118.734 205.996C118.734 205.539 118.85 205.148 119.08 204.824C119.314 204.496 119.637 204.246 120.047 204.074C120.461 203.898 120.936 203.811 121.471 203.811C121.928 203.811 122.35 203.854 122.736 203.939C123.127 204.025 123.484 204.141 123.809 204.285L123.498 205.141C123.189 205.012 122.861 204.904 122.514 204.818C122.17 204.732 121.814 204.689 121.447 204.689C121.08 204.689 120.77 204.744 120.516 204.854C120.266 204.959 120.074 205.109 119.941 205.305C119.809 205.5 119.742 205.732 119.742 206.002C119.742 206.303 119.805 206.553 119.93 206.752C120.059 206.951 120.262 207.129 120.539 207.285C120.82 207.438 121.191 207.598 121.652 207.766C122.156 207.949 122.584 208.145 122.936 208.352C123.287 208.555 123.555 208.805 123.738 209.102C123.922 209.395 124.014 209.768 124.014 210.221ZM128.021 205.973C128.787 205.973 129.355 206.145 129.727 206.488C130.098 206.832 130.283 207.381 130.283 208.135V212.5H129.574L129.387 211.551H129.34C129.16 211.785 128.973 211.982 128.777 212.143C128.582 212.299 128.355 212.418 128.098 212.5C127.844 212.578 127.531 212.617 127.16 212.617C126.77 212.617 126.422 212.549 126.117 212.412C125.816 212.275 125.578 212.068 125.402 211.791C125.23 211.514 125.145 211.162 125.145 210.736C125.145 210.096 125.398 209.604 125.906 209.26C126.414 208.916 127.188 208.729 128.227 208.697L129.334 208.65V208.258C129.334 207.703 129.215 207.314 128.977 207.092C128.738 206.869 128.402 206.758 127.969 206.758C127.633 206.758 127.312 206.807 127.008 206.904C126.703 207.002 126.414 207.117 126.141 207.25L125.842 206.512C126.131 206.363 126.463 206.236 126.838 206.131C127.213 206.025 127.607 205.973 128.021 205.973ZM129.322 209.336L128.344 209.377C127.543 209.408 126.979 209.539 126.65 209.77C126.322 210 126.158 210.326 126.158 210.748C126.158 211.115 126.27 211.387 126.492 211.562C126.715 211.738 127.01 211.826 127.377 211.826C127.947 211.826 128.414 211.668 128.777 211.352C129.141 211.035 129.322 210.561 129.322 209.928V209.336ZM133.699 212.5L131.262 206.078H132.305L133.717 209.963C133.814 210.229 133.914 210.521 134.016 210.842C134.117 211.162 134.188 211.42 134.227 211.615H134.268C134.314 211.42 134.393 211.162 134.502 210.842C134.611 210.518 134.711 210.225 134.801 209.963L136.213 206.078H137.256L134.812 212.5H133.699ZM140.76 205.961C141.307 205.961 141.775 206.082 142.166 206.324C142.557 206.566 142.855 206.906 143.062 207.344C143.27 207.777 143.373 208.285 143.373 208.867V209.471H138.938C138.949 210.225 139.137 210.799 139.5 211.193C139.863 211.588 140.375 211.785 141.035 211.785C141.441 211.785 141.801 211.748 142.113 211.674C142.426 211.6 142.75 211.49 143.086 211.346V212.201C142.762 212.346 142.439 212.451 142.119 212.518C141.803 212.584 141.428 212.617 140.994 212.617C140.377 212.617 139.838 212.492 139.377 212.242C138.92 211.988 138.564 211.617 138.311 211.129C138.057 210.641 137.93 210.043 137.93 209.336C137.93 208.645 138.045 208.047 138.275 207.543C138.51 207.035 138.838 206.645 139.26 206.371C139.686 206.098 140.186 205.961 140.76 205.961ZM140.748 206.758C140.229 206.758 139.814 206.928 139.506 207.268C139.197 207.607 139.014 208.082 138.955 208.691H142.354C142.35 208.309 142.289 207.973 142.172 207.684C142.059 207.391 141.885 207.164 141.65 207.004C141.416 206.84 141.115 206.758 140.748 206.758Z" fill="#6A7B7B"/>
</svg>
