<svg width="286" height="68" viewBox="0 0 286 68" fill="none" xmlns="http://www.w3.org/2000/svg">
<circle cx="34" cy="34" r="34" fill="#5CCEEB"/>
<path d="M46.4596 34.4858L28.4705 52.4219L16.5131 40.4291L34.5022 22.4931L43.4879 19.5125L49.4666 25.5089L46.4596 34.4858Z" fill="#DEF5FB"/>
<circle cx="41.888" cy="27.0872" r="2.11454" fill="#5CCEEB"/>
<path d="M93.3145 31.4492C93.3145 33.2539 92.6628 34.6758 91.3594 35.7148C90.0651 36.7539 88.2604 37.2734 85.9453 37.2734C83.8125 37.2734 81.9258 36.8724 80.2852 36.0703V32.1328C81.6341 32.7344 82.7734 33.1582 83.7031 33.4043C84.6419 33.6504 85.4987 33.7734 86.2734 33.7734C87.2031 33.7734 87.9141 33.5957 88.4062 33.2402C88.9076 32.8848 89.1582 32.3561 89.1582 31.6543C89.1582 31.2624 89.0488 30.916 88.8301 30.6152C88.6113 30.3053 88.2878 30.0091 87.8594 29.7266C87.4401 29.444 86.5788 28.9928 85.2754 28.373C84.054 27.7988 83.138 27.2474 82.5273 26.7188C81.9167 26.1901 81.429 25.5749 81.0645 24.873C80.6999 24.1712 80.5176 23.3509 80.5176 22.4121C80.5176 20.6439 81.1146 19.2539 82.3086 18.2422C83.5117 17.2305 85.1706 16.7246 87.2852 16.7246C88.3242 16.7246 89.3132 16.8477 90.252 17.0938C91.1999 17.3398 92.1888 17.6862 93.2188 18.1328L91.8516 21.4277C90.7852 20.9902 89.901 20.6849 89.1992 20.5117C88.5065 20.3385 87.8229 20.252 87.1484 20.252C86.3464 20.252 85.7311 20.4388 85.3027 20.8125C84.8743 21.1862 84.6602 21.6738 84.6602 22.2754C84.6602 22.6491 84.7467 22.9772 84.9199 23.2598C85.0931 23.5332 85.3665 23.8021 85.7402 24.0664C86.123 24.3216 87.0208 24.7865 88.4336 25.4609C90.3021 26.3542 91.5827 27.252 92.2754 28.1543C92.9681 29.0475 93.3145 30.1458 93.3145 31.4492ZM112.056 37H107.832V28.373H99.9158V37H95.6775V17.0117H99.9158V24.8457H107.832V17.0117H112.056V37ZM133.998 26.9785C133.998 30.2871 133.177 32.8301 131.537 34.6074C129.896 36.3848 127.544 37.2734 124.482 37.2734C121.419 37.2734 119.068 36.3848 117.427 34.6074C115.787 32.8301 114.966 30.278 114.966 26.9512C114.966 23.6243 115.787 21.0859 117.427 19.3359C119.077 17.5768 121.438 16.6973 124.509 16.6973C127.581 16.6973 129.928 17.5814 131.55 19.3496C133.182 21.1178 133.998 23.6608 133.998 26.9785ZM119.41 26.9785C119.41 29.2116 119.834 30.8932 120.681 32.0234C121.529 33.1536 122.796 33.7188 124.482 33.7188C127.863 33.7188 129.554 31.472 129.554 26.9785C129.554 22.4759 127.873 20.2246 124.509 20.2246C122.823 20.2246 121.552 20.7943 120.695 21.9336C119.838 23.0638 119.41 24.7454 119.41 26.9785ZM141.118 26.418H142.513C143.816 26.418 144.792 26.1628 145.439 25.6523C146.086 25.1328 146.409 24.3809 146.409 23.3965C146.409 22.403 146.136 21.6693 145.589 21.1953C145.051 20.7214 144.204 20.4844 143.046 20.4844H141.118V26.418ZM150.689 23.2461C150.689 25.3971 150.014 27.0423 148.665 28.1816C147.325 29.321 145.416 29.8906 142.937 29.8906H141.118V37H136.88V17.0117H143.265C145.689 17.0117 147.531 17.5358 148.788 18.584C150.055 19.623 150.689 21.1771 150.689 23.2461ZM162.28 37L155.499 19.2812H155.39C155.517 20.6849 155.581 22.3529 155.581 24.2852V37H153.435V17.0117H156.935L163.265 33.5H163.374L169.759 17.0117H173.231V37H170.907V24.1211C170.907 22.6445 170.971 21.0404 171.099 19.3086H170.989L164.153 37H162.28ZM194.817 26.9785C194.817 30.1777 194.006 32.6934 192.384 34.5254C190.77 36.3574 188.524 37.2734 185.643 37.2734C182.699 37.2734 180.425 36.3757 178.821 34.5801C177.226 32.7754 176.429 30.2324 176.429 26.9512C176.429 23.6973 177.231 21.1771 178.835 19.3906C180.439 17.5951 182.718 16.6973 185.671 16.6973C188.542 16.6973 190.784 17.6087 192.397 19.4316C194.011 21.2546 194.817 23.7702 194.817 26.9785ZM178.889 26.9785C178.889 29.6855 179.464 31.7409 180.612 33.1445C181.77 34.5391 183.447 35.2363 185.643 35.2363C187.858 35.2363 189.531 34.5391 190.661 33.1445C191.791 31.75 192.356 29.6947 192.356 26.9785C192.356 24.2897 191.791 22.2526 190.661 20.8672C189.54 19.4727 187.876 18.7754 185.671 18.7754C183.456 18.7754 181.77 19.4772 180.612 20.8809C179.464 22.2754 178.889 24.3079 178.889 26.9785ZM200.352 28.6875V37H198.028V17.0117H203.51C205.962 17.0117 207.771 17.4811 208.938 18.4199C210.114 19.3587 210.702 20.7715 210.702 22.6582C210.702 25.3014 209.362 27.0879 206.682 28.0176L212.11 37H209.362L204.522 28.6875H200.352ZM200.352 26.6914H203.538C205.178 26.6914 206.381 26.3678 207.147 25.7207C207.913 25.0645 208.295 24.0846 208.295 22.7812C208.295 21.4596 207.904 20.5072 207.12 19.9238C206.345 19.3405 205.096 19.0488 203.374 19.0488H200.352V26.6914ZM225.219 37H214.076V17.0117H225.219V19.0762H216.401V25.5156H224.686V27.5664H216.401V34.9219H225.219V37Z" fill="#12292F"/>
<path d="M87.6484 50.7207C87.6484 51.4746 87.375 52.0625 86.8281 52.4844C86.2812 52.9062 85.5391 53.1172 84.6016 53.1172C83.5859 53.1172 82.8047 52.9863 82.2578 52.7246V51.7637C82.6094 51.9121 82.9922 52.0293 83.4062 52.1152C83.8203 52.2012 84.2305 52.2441 84.6367 52.2441C85.3008 52.2441 85.8008 52.1191 86.1367 51.8691C86.4727 51.6152 86.6406 51.2637 86.6406 50.8145C86.6406 50.5176 86.5801 50.2754 86.459 50.0879C86.3418 49.8965 86.1426 49.7207 85.8613 49.5605C85.584 49.4004 85.1602 49.2188 84.5898 49.0156C83.793 48.7305 83.2227 48.3926 82.8789 48.002C82.5391 47.6113 82.3691 47.1016 82.3691 46.4727C82.3691 45.8125 82.6172 45.2871 83.1133 44.8965C83.6094 44.5059 84.2656 44.3105 85.082 44.3105C85.9336 44.3105 86.7168 44.4668 87.4316 44.7793L87.1211 45.6465C86.4141 45.3496 85.7266 45.2012 85.0586 45.2012C84.5312 45.2012 84.1191 45.3145 83.8223 45.541C83.5254 45.7676 83.377 46.082 83.377 46.4844C83.377 46.7812 83.4316 47.0254 83.541 47.2168C83.6504 47.4043 83.834 47.5781 84.0918 47.7383C84.3535 47.8945 84.752 48.0684 85.2871 48.2598C86.1855 48.5801 86.8027 48.9238 87.1387 49.291C87.4785 49.6582 87.6484 50.1348 87.6484 50.7207ZM91.9668 53.1172C91.0176 53.1172 90.2676 52.8281 89.7168 52.25C89.1699 51.6719 88.8965 50.8691 88.8965 49.8418C88.8965 48.8066 89.1504 47.9844 89.6582 47.375C90.1699 46.7656 90.8555 46.4609 91.7148 46.4609C92.5195 46.4609 93.1562 46.7266 93.625 47.2578C94.0938 47.7852 94.3281 48.4824 94.3281 49.3496V49.9648H89.9043C89.9238 50.7188 90.1133 51.291 90.4727 51.6816C90.8359 52.0723 91.3457 52.2676 92.002 52.2676C92.6934 52.2676 93.377 52.123 94.0527 51.834V52.7012C93.709 52.8496 93.3828 52.9551 93.0742 53.0176C92.7695 53.084 92.4004 53.1172 91.9668 53.1172ZM91.7031 47.2754C91.1875 47.2754 90.7754 47.4434 90.4668 47.7793C90.1621 48.1152 89.9824 48.5801 89.9277 49.1738H93.2852C93.2852 48.5605 93.1484 48.0918 92.875 47.7676C92.6016 47.4395 92.2109 47.2754 91.7031 47.2754ZM99.9414 53L99.748 52.0859H99.7012C99.3809 52.4883 99.0605 52.7617 98.7402 52.9062C98.4238 53.0469 98.0273 53.1172 97.5508 53.1172C96.9141 53.1172 96.4141 52.9531 96.0508 52.625C95.6914 52.2969 95.5117 51.8301 95.5117 51.2246C95.5117 49.9277 96.5488 49.248 98.623 49.1855L99.7129 49.1504V48.752C99.7129 48.248 99.6035 47.877 99.3848 47.6387C99.1699 47.3965 98.8242 47.2754 98.3477 47.2754C97.8125 47.2754 97.207 47.4395 96.5312 47.7676L96.2324 47.0234C96.5488 46.8516 96.8945 46.7168 97.2695 46.6191C97.6484 46.5215 98.0273 46.4727 98.4062 46.4727C99.1719 46.4727 99.7383 46.6426 100.105 46.9824C100.477 47.3223 100.662 47.8672 100.662 48.6172V53H99.9414ZM97.7441 52.3145C98.3496 52.3145 98.8242 52.1484 99.168 51.8164C99.5156 51.4844 99.6895 51.0195 99.6895 50.4219V49.8418L98.7168 49.8828C97.9434 49.9102 97.3848 50.0312 97.041 50.2461C96.7012 50.457 96.5312 50.7871 96.5312 51.2363C96.5312 51.5879 96.6367 51.8555 96.8477 52.0391C97.0625 52.2227 97.3613 52.3145 97.7441 52.3145ZM105.602 46.4609C105.887 46.4609 106.143 46.4844 106.369 46.5312L106.234 47.4336C105.969 47.375 105.734 47.3457 105.531 47.3457C105.012 47.3457 104.566 47.5566 104.195 47.9785C103.828 48.4004 103.645 48.9258 103.645 49.5547V53H102.672V46.5781H103.475L103.586 47.7676H103.633C103.871 47.3496 104.158 47.0273 104.494 46.8008C104.83 46.5742 105.199 46.4609 105.602 46.4609ZM110.137 53.1172C109.207 53.1172 108.486 52.832 107.975 52.2617C107.467 51.6875 107.213 50.877 107.213 49.8301C107.213 48.7559 107.471 47.9258 107.986 47.3398C108.506 46.7539 109.244 46.4609 110.201 46.4609C110.51 46.4609 110.818 46.4941 111.127 46.5605C111.436 46.627 111.678 46.7051 111.854 46.7949L111.555 47.6211C111.34 47.5352 111.105 47.4648 110.852 47.4102C110.598 47.3516 110.373 47.3223 110.178 47.3223C108.873 47.3223 108.221 48.1543 108.221 49.8184C108.221 50.6074 108.379 51.2129 108.695 51.6348C109.016 52.0566 109.488 52.2676 110.113 52.2676C110.648 52.2676 111.197 52.1523 111.76 51.9219V52.7832C111.33 53.0059 110.789 53.1172 110.137 53.1172ZM117.684 53V48.8457C117.684 48.3223 117.564 47.9316 117.326 47.6738C117.088 47.416 116.715 47.2871 116.207 47.2871C115.531 47.2871 115.037 47.4707 114.725 47.8379C114.416 48.2051 114.262 48.8066 114.262 49.6426V53H113.289V43.8828H114.262V46.6426C114.262 46.9746 114.246 47.25 114.215 47.4688H114.273C114.465 47.1602 114.736 46.918 115.088 46.7422C115.443 46.5625 115.848 46.4727 116.301 46.4727C117.086 46.4727 117.674 46.6602 118.064 47.0352C118.459 47.4062 118.656 47.998 118.656 48.8105V53H117.684ZM125.641 43.8828H126.467V55.9062H125.641V43.8828ZM137.318 45.2012C136.377 45.2012 135.633 45.5156 135.086 46.1445C134.543 46.7695 134.271 47.627 134.271 48.7168C134.271 49.8379 134.533 50.7051 135.057 51.3184C135.584 51.9277 136.334 52.2324 137.307 52.2324C137.904 52.2324 138.586 52.125 139.352 51.9102V52.7832C138.758 53.0059 138.025 53.1172 137.154 53.1172C135.893 53.1172 134.918 52.7344 134.23 51.9688C133.547 51.2031 133.205 50.1152 133.205 48.7051C133.205 47.8223 133.369 47.0488 133.697 46.3848C134.029 45.7207 134.506 45.209 135.127 44.8496C135.752 44.4902 136.486 44.3105 137.33 44.3105C138.229 44.3105 139.014 44.4746 139.686 44.8027L139.264 45.6582C138.615 45.3535 137.967 45.2012 137.318 45.2012ZM146.617 49.7832C146.617 50.8301 146.354 51.6484 145.826 52.2383C145.299 52.8242 144.57 53.1172 143.641 53.1172C143.066 53.1172 142.557 52.9824 142.111 52.7129C141.666 52.4434 141.322 52.0566 141.08 51.5527C140.838 51.0488 140.717 50.459 140.717 49.7832C140.717 48.7363 140.979 47.9219 141.502 47.3398C142.025 46.7539 142.752 46.4609 143.682 46.4609C144.58 46.4609 145.293 46.7598 145.82 47.3574C146.352 47.9551 146.617 48.7637 146.617 49.7832ZM141.725 49.7832C141.725 50.6035 141.889 51.2285 142.217 51.6582C142.545 52.0879 143.027 52.3027 143.664 52.3027C144.301 52.3027 144.783 52.0898 145.111 51.6641C145.443 51.2344 145.609 50.6074 145.609 49.7832C145.609 48.9668 145.443 48.3477 145.111 47.9258C144.783 47.5 144.297 47.2871 143.652 47.2871C143.016 47.2871 142.535 47.4961 142.211 47.9141C141.887 48.332 141.725 48.9551 141.725 49.7832ZM156.514 53V48.8223C156.514 48.3105 156.404 47.9277 156.186 47.6738C155.967 47.416 155.627 47.2871 155.166 47.2871C154.561 47.2871 154.113 47.4609 153.824 47.8086C153.535 48.1562 153.391 48.6914 153.391 49.4141V53H152.418V48.8223C152.418 48.3105 152.309 47.9277 152.09 47.6738C151.871 47.416 151.529 47.2871 151.064 47.2871C150.455 47.2871 150.008 47.4707 149.723 47.8379C149.441 48.2012 149.301 48.7988 149.301 49.6309V53H148.328V46.5781H149.119L149.277 47.457H149.324C149.508 47.1445 149.766 46.9004 150.098 46.7246C150.434 46.5488 150.809 46.4609 151.223 46.4609C152.227 46.4609 152.883 46.8242 153.191 47.5508H153.238C153.43 47.2148 153.707 46.9492 154.07 46.7539C154.434 46.5586 154.848 46.4609 155.312 46.4609C156.039 46.4609 156.582 46.6484 156.941 47.0234C157.305 47.3945 157.486 47.9902 157.486 48.8105V53H156.514ZM162.484 53.1172C162.066 53.1172 161.684 53.041 161.336 52.8887C160.992 52.7324 160.703 52.4941 160.469 52.1738H160.398C160.445 52.5488 160.469 52.9043 160.469 53.2402V55.8828H159.496V46.5781H160.287L160.422 47.457H160.469C160.719 47.1055 161.01 46.8516 161.342 46.6953C161.674 46.5391 162.055 46.4609 162.484 46.4609C163.336 46.4609 163.992 46.752 164.453 47.334C164.918 47.916 165.15 48.7324 165.15 49.7832C165.15 50.8379 164.914 51.6582 164.441 52.2441C163.973 52.8262 163.32 53.1172 162.484 53.1172ZM162.344 47.2871C161.688 47.2871 161.213 47.4688 160.92 47.832C160.627 48.1953 160.477 48.7734 160.469 49.5664V49.7832C160.469 50.6855 160.619 51.332 160.92 51.7227C161.221 52.1094 161.703 52.3027 162.367 52.3027C162.922 52.3027 163.355 52.0781 163.668 51.6289C163.984 51.1797 164.143 50.5605 164.143 49.7715C164.143 48.9707 163.984 48.3574 163.668 47.9316C163.355 47.502 162.914 47.2871 162.344 47.2871ZM170.805 53L170.611 52.0859H170.564C170.244 52.4883 169.924 52.7617 169.604 52.9062C169.287 53.0469 168.891 53.1172 168.414 53.1172C167.777 53.1172 167.277 52.9531 166.914 52.625C166.555 52.2969 166.375 51.8301 166.375 51.2246C166.375 49.9277 167.412 49.248 169.486 49.1855L170.576 49.1504V48.752C170.576 48.248 170.467 47.877 170.248 47.6387C170.033 47.3965 169.688 47.2754 169.211 47.2754C168.676 47.2754 168.07 47.4395 167.395 47.7676L167.096 47.0234C167.412 46.8516 167.758 46.7168 168.133 46.6191C168.512 46.5215 168.891 46.4727 169.27 46.4727C170.035 46.4727 170.602 46.6426 170.969 46.9824C171.34 47.3223 171.525 47.8672 171.525 48.6172V53H170.805ZM168.607 52.3145C169.213 52.3145 169.688 52.1484 170.031 51.8164C170.379 51.4844 170.553 51.0195 170.553 50.4219V49.8418L169.58 49.8828C168.807 49.9102 168.248 50.0312 167.904 50.2461C167.564 50.457 167.395 50.7871 167.395 51.2363C167.395 51.5879 167.5 51.8555 167.711 52.0391C167.926 52.2227 168.225 52.3145 168.607 52.3145ZM176.465 46.4609C176.75 46.4609 177.006 46.4844 177.232 46.5312L177.098 47.4336C176.832 47.375 176.598 47.3457 176.395 47.3457C175.875 47.3457 175.43 47.5566 175.059 47.9785C174.691 48.4004 174.508 48.9258 174.508 49.5547V53H173.535V46.5781H174.338L174.449 47.7676H174.496C174.734 47.3496 175.021 47.0273 175.357 46.8008C175.693 46.5742 176.062 46.4609 176.465 46.4609ZM181.146 53.1172C180.197 53.1172 179.447 52.8281 178.896 52.25C178.35 51.6719 178.076 50.8691 178.076 49.8418C178.076 48.8066 178.33 47.9844 178.838 47.375C179.35 46.7656 180.035 46.4609 180.895 46.4609C181.699 46.4609 182.336 46.7266 182.805 47.2578C183.273 47.7852 183.508 48.4824 183.508 49.3496V49.9648H179.084C179.104 50.7188 179.293 51.291 179.652 51.6816C180.016 52.0723 180.525 52.2676 181.182 52.2676C181.873 52.2676 182.557 52.123 183.232 51.834V52.7012C182.889 52.8496 182.562 52.9551 182.254 53.0176C181.949 53.084 181.58 53.1172 181.146 53.1172ZM180.883 47.2754C180.367 47.2754 179.955 47.4434 179.646 47.7793C179.342 48.1152 179.162 48.5801 179.107 49.1738H182.465C182.465 48.5605 182.328 48.0918 182.055 47.7676C181.781 47.4395 181.391 47.2754 180.883 47.2754ZM190.152 43.8828H190.979V55.9062H190.152V43.8828ZM202.996 50.7207C202.996 51.4746 202.723 52.0625 202.176 52.4844C201.629 52.9062 200.887 53.1172 199.949 53.1172C198.934 53.1172 198.152 52.9863 197.605 52.7246V51.7637C197.957 51.9121 198.34 52.0293 198.754 52.1152C199.168 52.2012 199.578 52.2441 199.984 52.2441C200.648 52.2441 201.148 52.1191 201.484 51.8691C201.82 51.6152 201.988 51.2637 201.988 50.8145C201.988 50.5176 201.928 50.2754 201.807 50.0879C201.689 49.8965 201.49 49.7207 201.209 49.5605C200.932 49.4004 200.508 49.2188 199.938 49.0156C199.141 48.7305 198.57 48.3926 198.227 48.002C197.887 47.6113 197.717 47.1016 197.717 46.4727C197.717 45.8125 197.965 45.2871 198.461 44.8965C198.957 44.5059 199.613 44.3105 200.43 44.3105C201.281 44.3105 202.064 44.4668 202.779 44.7793L202.469 45.6465C201.762 45.3496 201.074 45.2012 200.406 45.2012C199.879 45.2012 199.467 45.3145 199.17 45.541C198.873 45.7676 198.725 46.082 198.725 46.4844C198.725 46.7812 198.779 47.0254 198.889 47.2168C198.998 47.4043 199.182 47.5781 199.439 47.7383C199.701 47.8945 200.1 48.0684 200.635 48.2598C201.533 48.5801 202.15 48.9238 202.486 49.291C202.826 49.6582 202.996 50.1348 202.996 50.7207ZM208.551 53L208.357 52.0859H208.311C207.99 52.4883 207.67 52.7617 207.35 52.9062C207.033 53.0469 206.637 53.1172 206.16 53.1172C205.523 53.1172 205.023 52.9531 204.66 52.625C204.301 52.2969 204.121 51.8301 204.121 51.2246C204.121 49.9277 205.158 49.248 207.232 49.1855L208.322 49.1504V48.752C208.322 48.248 208.213 47.877 207.994 47.6387C207.779 47.3965 207.434 47.2754 206.957 47.2754C206.422 47.2754 205.816 47.4395 205.141 47.7676L204.842 47.0234C205.158 46.8516 205.504 46.7168 205.879 46.6191C206.258 46.5215 206.637 46.4727 207.016 46.4727C207.781 46.4727 208.348 46.6426 208.715 46.9824C209.086 47.3223 209.271 47.8672 209.271 48.6172V53H208.551ZM206.354 52.3145C206.959 52.3145 207.434 52.1484 207.777 51.8164C208.125 51.4844 208.299 51.0195 208.299 50.4219V49.8418L207.326 49.8828C206.553 49.9102 205.994 50.0312 205.65 50.2461C205.311 50.457 205.141 50.7871 205.141 51.2363C205.141 51.5879 205.246 51.8555 205.457 52.0391C205.672 52.2227 205.971 52.3145 206.354 52.3145ZM212.688 53L210.25 46.5781H211.293L212.676 50.3867C212.988 51.2773 213.172 51.8555 213.227 52.1211H213.273C213.316 51.9141 213.451 51.4863 213.678 50.8379C213.908 50.1855 214.422 48.7656 215.219 46.5781H216.262L213.824 53H212.688ZM220.006 53.1172C219.057 53.1172 218.307 52.8281 217.756 52.25C217.209 51.6719 216.936 50.8691 216.936 49.8418C216.936 48.8066 217.189 47.9844 217.697 47.375C218.209 46.7656 218.895 46.4609 219.754 46.4609C220.559 46.4609 221.195 46.7266 221.664 47.2578C222.133 47.7852 222.367 48.4824 222.367 49.3496V49.9648H217.943C217.963 50.7188 218.152 51.291 218.512 51.6816C218.875 52.0723 219.385 52.2676 220.041 52.2676C220.732 52.2676 221.416 52.123 222.092 51.834V52.7012C221.748 52.8496 221.422 52.9551 221.113 53.0176C220.809 53.084 220.439 53.1172 220.006 53.1172ZM219.742 47.2754C219.227 47.2754 218.814 47.4434 218.506 47.7793C218.201 48.1152 218.021 48.5801 217.967 49.1738H221.324C221.324 48.5605 221.188 48.0918 220.914 47.7676C220.641 47.4395 220.25 47.2754 219.742 47.2754Z" fill="#6A7B7B"/>
</svg>
