<svg width="80" height="80" viewBox="0 0 80 80" fill="none" xmlns="http://www.w3.org/2000/svg">
<path d="M56.6666 61.4336H43.3333L28.4999 71.3002C26.2999 72.7668 23.3333 71.2003 23.3333 68.5336V61.4336C13.3333 61.4336 6.66663 54.767 6.66663 44.767V24.7668C6.66663 14.7668 13.3333 8.1001 23.3333 8.1001H56.6666C66.6666 8.1001 73.3333 14.7668 73.3333 24.7668V44.767C73.3333 54.767 66.6666 61.4336 56.6666 61.4336Z" fill="#3D899D" stroke="#12292F" stroke-width="1.5" stroke-miterlimit="10" stroke-linecap="round" stroke-linejoin="round"/>
<path d="M40 37.8667V37.1668C40 34.9002 41.4001 33.7001 42.8001 32.7334C44.1668 31.8001 45.5333 30.6001 45.5333 28.4001C45.5333 25.3335 43.0667 22.8667 40 22.8667C36.9334 22.8667 34.4668 25.3335 34.4668 28.4001" fill="#3D899D"/>
<path d="M40 37.8667V37.1668C40 34.9002 41.4001 33.7001 42.8001 32.7334C44.1668 31.8001 45.5333 30.6001 45.5333 28.4001C45.5333 25.3335 43.0667 22.8667 40 22.8667C36.9334 22.8667 34.4668 25.3335 34.4668 28.4001" stroke="#12292F" stroke-width="1.5" stroke-linecap="round" stroke-linejoin="round"/>
<path fill-rule="evenodd" clip-rule="evenodd" d="M39.985 45.8332H40.015H39.985Z" fill="#3D899D"/>
<path d="M39.985 45.8332H40.015" stroke="#292D32" stroke-width="1.5" stroke-linecap="round" stroke-linejoin="round"/>
</svg>
