<svg width="32" height="32" viewBox="0 0 32 32" fill="none" xmlns="http://www.w3.org/2000/svg">
<path d="M16 1C7.716 1 1 7.716 1 16C1 24.284 7.716 31 16 31C24.284 31 31 24.284 31 16C31 7.716 24.284 1 16 1ZM16 29.75C8.418 29.75 2.25 23.582 2.25 16C2.25 8.418 8.418 2.25 16 2.25C23.5815 2.25 29.75 8.418 29.75 16C29.75 23.582 23.5815 29.75 16 29.75Z" fill="#545454"/>
<path d="M22.2921 20.1402C18.2371 22.9682 13.7391 22.9517 9.7081 20.1402C9.2231 19.8017 8.7856 20.3877 9.1146 20.9292C10.3436 22.9527 12.8231 24.7542 16.0001 24.7542C19.1771 24.7542 21.6566 22.9522 22.8856 20.9292C23.2146 20.3877 22.7771 19.8022 22.2921 20.1402ZM13.6361 13.8972C13.8756 14.1497 14.3551 13.6852 14.2631 13.4282C13.3336 10.8727 11.9331 9.59375 10.5326 9.59375C9.1321 9.59375 7.7316 10.8727 6.8026 13.4282C6.7106 13.6857 7.1896 14.1497 7.4296 13.8972C8.3306 12.9467 9.4081 12.5682 10.5331 12.5682C11.6576 12.5682 12.7351 12.9467 13.6361 13.8972ZM21.4676 9.59375C20.0671 9.59375 18.6666 10.8727 17.7371 13.4282C17.6451 13.6857 18.1246 14.1497 18.3641 13.8972C19.2656 12.9467 20.3426 12.5682 21.4676 12.5682C22.5926 12.5682 23.6696 12.9467 24.5711 13.8972C24.8106 14.1497 25.2901 13.6852 25.1981 13.4282C24.2681 10.8722 22.8676 9.59375 21.4676 9.59375Z" fill="#545454"/>
</svg>
