<svg width="32" height="33" viewBox="0 0 32 33" fill="none" xmlns="http://www.w3.org/2000/svg">
<path d="M16.0001 2.27734C13.1872 2.27734 10.4374 3.11146 8.09862 4.67422C5.75978 6.23698 3.93689 8.45819 2.86044 11.057C1.78399 13.6557 1.50235 16.5153 2.05111 19.2742C2.59988 22.033 3.95442 24.5672 5.94343 26.5562C7.93244 28.5452 10.4666 29.8997 13.2254 30.4485C15.9843 30.9973 18.8439 30.7156 21.4427 29.6392C24.0414 28.5627 26.2626 26.7398 27.8254 24.401C29.3882 22.0622 30.2223 19.3125 30.2223 16.4996C30.2223 12.7276 28.7239 9.11012 26.0567 6.44294C23.3895 3.77575 19.772 2.27734 16.0001 2.27734ZM16.0001 28.944C13.5388 28.944 11.1328 28.2142 9.0863 26.8467C7.03982 25.4793 5.44478 23.5358 4.50289 21.2619C3.561 18.9879 3.31456 16.4858 3.79473 14.0718C4.2749 11.6578 5.46012 9.4404 7.20051 7.70001C8.9409 5.95963 11.1583 4.77441 13.5723 4.29424C15.9863 3.81407 18.4884 4.06051 20.7623 5.0024C23.0363 5.94429 24.9798 7.53932 26.3472 9.5858C27.7147 11.6323 28.4445 14.0383 28.4445 16.4996C28.4445 19.8 27.1334 22.9653 24.7996 25.2991C22.4658 27.6329 19.3005 28.944 16.0001 28.944Z" fill="#545454"/>
<path d="M22.3644 14.7938C23.2481 14.7938 23.9644 14.0774 23.9644 13.1938C23.9644 12.3101 23.2481 11.5938 22.3644 11.5938C21.4807 11.5938 20.7644 12.3101 20.7644 13.1938C20.7644 14.0774 21.4807 14.7938 22.3644 14.7938Z" fill="#545454"/>
<path d="M10.1422 14.7938C11.0259 14.7938 11.7422 14.0774 11.7422 13.1938C11.7422 12.3101 11.0259 11.5938 10.1422 11.5938C9.25858 11.5938 8.54224 12.3101 8.54224 13.1938C8.54224 14.0774 9.25858 14.7938 10.1422 14.7938Z" fill="#545454"/>
<path d="M16.1422 18.2773C14.867 18.2776 13.6103 18.5826 12.4769 19.1671C11.3435 19.7516 10.3663 20.5985 9.62664 21.6373C9.48991 21.8295 9.4351 22.0681 9.47427 22.3006C9.51345 22.5332 9.64339 22.7406 9.83553 22.8773C10.0277 23.0141 10.2662 23.0689 10.4988 23.0297C10.7313 22.9905 10.9388 22.8606 11.0755 22.6685C11.6439 21.8702 12.3928 21.2174 13.2612 20.7633C14.1296 20.3092 15.0929 20.0667 16.0728 20.0554C17.0527 20.0441 18.0214 20.2645 18.9 20.6985C19.7786 21.1325 20.5423 21.7679 21.1289 22.5529C21.2703 22.7415 21.4809 22.8662 21.7143 22.8995C21.9476 22.9329 22.1847 22.8721 22.3733 22.7307C22.5619 22.5892 22.6866 22.3787 22.7199 22.1453C22.7533 21.9119 22.6925 21.6748 22.5511 21.4862C21.8059 20.4898 20.8387 19.681 19.7261 19.1239C18.6136 18.5669 17.3864 18.277 16.1422 18.2773Z" fill="#545454"/>
</svg>
