<svg width="33" height="32" viewBox="0 0 33 32" fill="none" xmlns="http://www.w3.org/2000/svg">
<path d="M32.8 16C32.8 24.8366 25.6366 32 16.8 32C7.96349 32 0.800049 24.8366 0.800049 16C0.800049 7.16344 7.96349 0 16.8 0C25.6366 0 32.8 7.16344 32.8 16Z" fill="#5CCEEB"/>
<path d="M22.6638 16.2282L14.1984 24.6687L8.57137 19.0251L17.0368 10.5846L21.2654 9.18197L24.0789 12.0038L22.6638 16.2282Z" fill="#DEF5FB"/>
<path d="M21.5074 12.7463C21.5074 13.2958 21.0619 13.7414 20.5123 13.7414C19.9627 13.7414 19.5172 13.2958 19.5172 12.7463C19.5172 12.1967 19.9627 11.7512 20.5123 11.7512C21.0619 11.7512 21.5074 12.1967 21.5074 12.7463Z" fill="#5CCEEB"/>
</svg>
