<svg width="281" height="240" viewBox="0 0 281 240" fill="none" xmlns="http://www.w3.org/2000/svg">
<g clip-path="url(#clip0_1680_12926)">
<path d="M279.443 14.2008H1.55653C1.14385 14.2003 0.748205 14.0103 0.456396 13.6726C0.164587 13.3348 0.000451061 12.8769 0 12.3992V1.80161C0.000451061 1.32396 0.164587 0.866009 0.456396 0.528253C0.748205 0.190497 1.14385 0.000521011 1.55653 0H279.443C279.856 0.000522084 280.252 0.190503 280.544 0.528259C280.835 0.866015 281 1.32396 281 1.80161V12.3992C281 12.8769 280.835 13.3348 280.544 13.6726C280.252 14.0103 279.856 14.2003 279.443 14.2008Z" fill="#2E6776"/>
<path d="M9.03313 9.14109C10.2536 9.14109 11.243 7.9959 11.243 6.58324C11.243 5.17058 10.2536 4.02539 9.03313 4.02539C7.81264 4.02539 6.82324 5.17058 6.82324 6.58324C6.82324 7.9959 7.81264 9.14109 9.03313 9.14109Z" fill="white"/>
<path d="M17.4213 9.14109C18.6418 9.14109 19.6312 7.9959 19.6312 6.58324C19.6312 5.17058 18.6418 4.02539 17.4213 4.02539C16.2008 4.02539 15.2114 5.17058 15.2114 6.58324C15.2114 7.9959 16.2008 9.14109 17.4213 9.14109Z" fill="white"/>
<path d="M25.8097 9.14109C27.0302 9.14109 28.0196 7.9959 28.0196 6.58324C28.0196 5.17058 27.0302 4.02539 25.8097 4.02539C24.5893 4.02539 23.5999 5.17058 23.5999 6.58324C23.5999 7.9959 24.5893 9.14109 25.8097 9.14109Z" fill="white"/>
<path d="M271.225 4.82231H261.566C261.376 4.82182 261.195 4.73436 261.061 4.5791C260.927 4.42385 260.852 4.21348 260.852 3.99416C260.852 3.77484 260.927 3.56448 261.061 3.40922C261.195 3.25397 261.376 3.1665 261.566 3.16602H271.225C271.415 3.16586 271.597 3.25283 271.731 3.40781C271.865 3.5628 271.941 3.77314 271.941 3.99261C271.941 4.21208 271.866 4.42274 271.733 4.57831C271.599 4.73388 271.417 4.82164 271.228 4.82231H271.225Z" fill="white"/>
<path d="M271.225 7.92778H261.566C261.376 7.92729 261.195 7.83982 261.061 7.68457C260.927 7.52931 260.852 7.31895 260.852 7.09963C260.852 6.88031 260.927 6.66995 261.061 6.51469C261.195 6.35944 261.376 6.27197 261.566 6.27148H271.225C271.415 6.27133 271.597 6.35829 271.731 6.51328C271.865 6.66827 271.941 6.87861 271.941 7.09808C271.941 7.31755 271.866 7.52821 271.733 7.68378C271.599 7.83935 271.417 7.92711 271.228 7.92778H271.225Z" fill="white"/>
<path d="M271.225 11.0332H261.566C261.376 11.0332 261.194 10.946 261.06 10.7907C260.926 10.6354 260.85 10.4247 260.85 10.2051C260.85 9.98547 260.926 9.77482 261.06 9.61951C261.194 9.46421 261.376 9.37695 261.566 9.37695H271.225C271.415 9.37654 271.597 9.4634 271.731 9.61841C271.866 9.77343 271.941 9.98391 271.942 10.2035C271.942 10.4232 271.867 10.634 271.733 10.7896C271.599 10.9452 271.417 11.0328 271.228 11.0332H271.225Z" fill="white"/>
<path d="M79.2358 210.591C80.2583 201.074 85.3541 191.697 93.1957 188.6C90.1032 198.395 90.1039 209.141 93.1976 218.936C94.4026 222.709 96.0822 226.76 94.9487 230.562C94.2435 232.928 92.5184 234.738 90.59 235.87C88.6614 237.002 86.5212 237.541 84.4077 238.07L83.9918 238.468C80.6367 229.699 78.2133 220.108 79.2358 210.591Z" fill="#D4F5F5"/>
<path d="M93.2736 188.78C88.707 194.703 85.8688 202.14 85.162 210.036C84.9837 211.732 85.0377 213.451 85.3218 215.128C85.6442 216.752 86.3363 218.246 87.3262 219.455C88.2296 220.604 89.2687 221.658 89.9151 223.041C90.2369 223.754 90.4248 224.539 90.4663 225.342C90.5079 226.146 90.4022 226.951 90.1562 227.704C89.5855 229.598 88.4606 231.142 87.3153 232.608C86.0436 234.236 84.7004 235.903 84.1599 238.061C84.0944 238.323 83.7477 238.19 83.8131 237.929C84.7536 234.174 87.9022 232.042 89.4038 228.661C90.1045 227.083 90.3986 225.251 89.7417 223.585C89.1673 222.129 88.0966 221.041 87.1732 219.887C86.1926 218.723 85.4729 217.3 85.0771 215.741C84.7202 214.086 84.6091 212.372 84.7487 210.674C85.0104 206.845 85.7906 203.088 87.0608 199.539C88.4909 195.48 90.5105 191.734 93.032 188.463C93.1882 188.261 93.4288 188.579 93.2737 188.78L93.2736 188.78Z" fill="white"/>
<path d="M85.26 207.479C84.1316 207.162 83.1373 206.391 82.4547 205.303C81.7721 204.216 81.4456 202.883 81.5336 201.543C81.5376 201.489 81.5598 201.438 81.5955 201.402C81.6311 201.366 81.6775 201.347 81.7248 201.35C81.7721 201.353 81.8166 201.376 81.849 201.416C81.8814 201.456 81.8991 201.509 81.8984 201.564C81.8145 202.812 82.1187 204.054 82.7562 205.064C83.3936 206.075 84.3223 206.789 85.3745 207.078C85.6032 207.14 85.4873 207.541 85.26 207.479Z" fill="white"/>
<path d="M86.8017 218.941C88.8398 217.533 90.3443 215.287 91.0153 212.651C91.0816 212.39 91.4283 212.523 91.3621 212.784C90.6594 215.525 89.0896 217.858 86.966 219.319C86.7635 219.458 86.6003 219.08 86.8017 218.941Z" fill="white"/>
<path d="M88.8297 195.881C89.2442 196.109 89.7011 196.214 90.1595 196.187C90.6179 196.16 91.0633 196.002 91.4557 195.727C91.6566 195.585 91.8195 195.963 91.6199 196.104C91.1851 196.406 90.693 196.58 90.1867 196.611C89.6803 196.642 89.1751 196.529 88.7152 196.282C88.6701 196.263 88.633 196.225 88.6115 196.175C88.5899 196.126 88.5854 196.069 88.599 196.015C88.6144 195.962 88.6473 195.918 88.6905 195.893C88.7337 195.868 88.7837 195.864 88.8297 195.881Z" fill="white"/>
<path d="M117.098 205.6C116.975 205.693 116.852 205.785 116.728 205.882C115.077 207.139 113.516 208.549 112.062 210.098C111.948 210.216 111.834 210.337 111.723 210.459C108.254 214.235 105.421 218.724 103.368 223.697C102.552 225.677 101.868 227.726 101.321 229.826C100.566 232.726 99.9466 235.94 98.4518 238.312C98.2982 238.562 98.1315 238.8 97.9524 239.026H84.4438C84.4131 239.008 84.3822 238.994 84.3514 238.976L83.812 239.005C83.8337 238.894 83.8582 238.78 83.8799 238.669C83.8922 238.605 83.9076 238.541 83.9199 238.477C83.9291 238.434 83.9384 238.391 83.9446 238.352C83.9476 238.337 83.9508 238.323 83.9538 238.312C83.96 238.273 83.9693 238.238 83.9755 238.202C84.111 237.563 84.2508 236.925 84.3946 236.286C84.3946 236.283 84.3946 236.283 84.3976 236.279C85.4533 231.401 87.0051 226.685 89.0207 222.231C89.0824 222.099 89.1439 221.963 89.2118 221.831C90.1451 219.859 91.2161 217.979 92.4141 216.209C93.0728 215.242 93.7733 214.315 94.513 213.43C96.4281 211.148 98.6413 209.229 101.072 207.744C105.917 204.783 111.526 203.648 116.704 205.457C116.836 205.504 116.966 205.55 117.098 205.6Z" fill="#D4F5F5"/>
<path d="M117.068 205.797C110.341 207.344 104.206 211.304 99.5347 217.116C98.5099 218.346 97.659 219.756 97.0134 221.293C96.4264 222.814 96.2019 224.489 96.3633 226.144C96.487 227.691 96.7684 229.257 96.5651 230.812C96.4508 231.606 96.1928 232.363 95.808 233.034C95.4232 233.704 94.9202 234.273 94.3321 234.703C92.8909 235.818 91.1895 236.267 89.5125 236.639C87.6504 237.053 85.7107 237.448 84.1567 238.794C83.9684 238.957 83.7607 238.61 83.9487 238.447C86.6525 236.105 90.2758 236.596 93.2336 234.943C94.6138 234.171 95.8015 232.913 96.1434 231.126C96.4423 229.563 96.1534 227.948 96.0165 226.383C95.8385 224.771 96.0044 223.133 96.4994 221.612C97.0753 220.041 97.8778 218.596 98.8727 217.338C101.073 214.463 103.651 212.006 106.511 210.058C109.764 207.814 113.325 206.23 117.04 205.376C117.27 205.323 117.296 205.745 117.068 205.797H117.068Z" fill="white"/>
<path d="M100.944 215.143C100.208 214.103 99.8147 212.795 99.8352 211.451C99.8558 210.107 100.288 208.815 101.056 207.807C101.212 207.603 101.492 207.874 101.336 208.078C100.62 209.015 100.217 210.219 100.2 211.47C100.183 212.721 100.553 213.939 101.244 214.902C101.394 215.112 101.093 215.351 100.944 215.143Z" fill="white"/>
<path d="M96.2113 225.37C98.5713 225.666 100.941 224.921 102.847 223.284C103.036 223.122 103.244 223.47 103.055 223.632C101.069 225.331 98.6013 226.1 96.1461 225.786C95.9121 225.756 95.9786 225.34 96.2113 225.37Z" fill="white"/>
<path d="M109.826 208.37C110.039 208.841 110.349 209.243 110.729 209.541C111.109 209.839 111.547 210.023 112.003 210.077C112.237 210.103 112.171 210.519 111.938 210.493C111.434 210.431 110.95 210.227 110.53 209.899C110.109 209.571 109.765 209.128 109.526 208.611C109.5 208.564 109.49 208.508 109.499 208.453C109.507 208.398 109.534 208.35 109.572 208.317C109.612 208.285 109.661 208.273 109.709 208.283C109.756 208.293 109.799 208.324 109.826 208.37L109.826 208.37Z" fill="white"/>
<path d="M91.0803 73.892H46.3872C45.0061 73.8902 43.682 73.2543 42.7054 72.1239C41.7288 70.9935 41.1795 69.4609 41.178 67.8623V39.6875C41.1795 38.0889 41.7289 36.5564 42.7055 35.4261C43.6821 34.2957 45.0061 33.6599 46.3872 33.6582H91.0803C92.4614 33.6599 93.7855 34.2957 94.7621 35.4261C95.7387 36.5564 96.288 38.0889 96.2896 39.6875V67.8623C96.288 69.4609 95.7387 70.9935 94.7621 72.1239C93.7855 73.2543 92.4614 73.8902 91.0803 73.892Z" fill="#B1CCCC"/>
<path d="M159.314 73.892H114.621C113.24 73.8902 111.915 73.2543 110.939 72.1239C109.962 70.9935 109.413 69.4609 109.411 67.8623V39.6875C109.413 38.0889 109.962 36.5564 110.939 35.4261C111.915 34.2957 113.24 33.6599 114.621 33.6582H159.314C160.695 33.6599 162.019 34.2957 162.996 35.4261C163.972 36.5564 164.521 38.0889 164.523 39.6875V67.8623C164.521 69.4609 163.972 70.9935 162.996 72.1239C162.019 73.2543 160.695 73.8902 159.314 73.892Z" fill="#1F454E"/>
<path d="M227.547 73.892H182.854C181.473 73.8902 180.149 73.2543 179.172 72.1239C178.196 70.9935 177.646 69.4609 177.645 67.8623V39.6875C177.646 38.0889 178.196 36.5564 179.172 35.4261C180.149 34.2957 181.473 33.6599 182.854 33.6582H227.547C228.928 33.6599 230.252 34.2957 231.229 35.4261C232.205 36.5564 232.755 38.0889 232.756 39.6875V67.8623C232.755 69.4609 232.205 70.9935 231.229 72.1239C230.252 73.2543 228.928 73.8902 227.547 73.892Z" fill="#B1CCCC"/>
<path d="M91.0803 136.669H46.3872C45.0061 136.668 43.682 136.032 42.7054 134.901C41.7288 133.771 41.1795 132.238 41.178 130.64V102.465C41.1795 100.866 41.7289 99.3337 42.7055 98.2034C43.6821 97.0731 45.0061 96.4373 46.3872 96.4355H91.0803C92.4614 96.4373 93.7855 97.0731 94.7621 98.2034C95.7387 99.3337 96.288 100.866 96.2896 102.465V130.64C96.288 132.238 95.7387 133.771 94.7621 134.901C93.7855 136.032 92.4614 136.668 91.0803 136.669Z" fill="#B1CCCC"/>
<path d="M159.314 136.669H114.621C113.24 136.668 111.915 136.032 110.939 134.901C109.962 133.771 109.413 132.238 109.411 130.64V102.465C109.413 100.866 109.962 99.3337 110.939 98.2034C111.915 97.0731 113.24 96.4373 114.621 96.4355H159.314C160.695 96.4373 162.019 97.0731 162.996 98.2034C163.972 99.3337 164.521 100.866 164.523 102.465V130.64C164.521 132.238 163.972 133.771 162.996 134.901C162.019 136.032 160.695 136.668 159.314 136.669Z" fill="#B1CCCC"/>
<path d="M162.469 141.853C166.878 141.853 170.452 137.717 170.452 132.614C170.452 127.512 166.878 123.375 162.469 123.375C158.061 123.375 154.487 127.512 154.487 132.614C154.487 137.717 158.061 141.853 162.469 141.853Z" fill="#1F454E"/>
<path d="M165.784 131.838H163.07V128.696C163.07 128.599 163.054 128.503 163.021 128.413C162.989 128.324 162.942 128.242 162.883 128.174C162.824 128.105 162.753 128.05 162.676 128.013C162.598 127.976 162.515 127.957 162.431 127.957C162.348 127.957 162.264 127.976 162.187 128.013C162.11 128.05 162.039 128.105 161.98 128.174C161.921 128.242 161.873 128.324 161.841 128.413C161.809 128.503 161.793 128.599 161.793 128.696V131.838H159.079C158.995 131.838 158.912 131.857 158.834 131.894C158.757 131.931 158.687 131.985 158.627 132.054C158.568 132.123 158.521 132.204 158.489 132.294C158.457 132.384 158.44 132.48 158.44 132.577C158.44 132.674 158.457 132.77 158.489 132.86C158.521 132.949 158.568 133.031 158.627 133.099C158.687 133.168 158.757 133.223 158.834 133.26C158.912 133.297 158.995 133.316 159.079 133.316H161.793V136.457C161.793 136.554 161.809 136.65 161.841 136.74C161.874 136.83 161.921 136.911 161.98 136.98C162.039 137.049 162.11 137.103 162.187 137.14C162.264 137.177 162.348 137.196 162.431 137.196C162.601 137.196 162.763 137.119 162.883 136.98C163.003 136.841 163.07 136.653 163.07 136.457V133.316H165.784C165.868 133.316 165.951 133.297 166.028 133.26C166.106 133.222 166.176 133.168 166.236 133.099C166.295 133.031 166.342 132.949 166.374 132.86C166.406 132.77 166.423 132.674 166.423 132.577C166.423 132.48 166.406 132.384 166.374 132.294C166.342 132.204 166.295 132.123 166.236 132.054C166.176 131.985 166.106 131.931 166.028 131.894C165.951 131.857 165.868 131.838 165.784 131.838L165.784 131.838Z" fill="white"/>
<path d="M231.753 80.6972C236.161 80.6972 239.735 76.5607 239.735 71.458C239.735 66.3553 236.161 62.2188 231.753 62.2188C227.344 62.2188 223.77 66.3553 223.77 71.458C223.77 76.5607 227.344 80.6972 231.753 80.6972Z" fill="#1F454E"/>
<path d="M235.067 70.6813H232.353V67.54C232.353 67.4429 232.337 67.3468 232.305 67.2571C232.273 67.1674 232.225 67.0859 232.166 67.0173C232.107 66.9487 232.036 66.8942 231.959 66.8571C231.882 66.8199 231.798 66.8008 231.715 66.8008C231.631 66.8008 231.548 66.8199 231.47 66.8571C231.393 66.8942 231.322 66.9487 231.263 67.0173C231.204 67.0859 231.157 67.1674 231.125 67.2571C231.093 67.3468 231.076 67.4429 231.076 67.54V70.6813H228.362C228.278 70.6813 228.195 70.7004 228.118 70.7376C228.04 70.7747 227.97 70.8292 227.91 70.8978C227.851 70.9664 227.804 71.0479 227.772 71.1376C227.74 71.2273 227.723 71.3234 227.723 71.4205C227.723 71.5176 227.74 71.6137 227.772 71.7034C227.804 71.793 227.851 71.8745 227.91 71.9432C227.97 72.0118 228.04 72.0663 228.118 72.1034C228.195 72.1406 228.278 72.1597 228.362 72.1597H231.076V75.301C231.076 75.3981 231.093 75.4942 231.125 75.5839C231.157 75.6736 231.204 75.755 231.263 75.8237C231.322 75.8923 231.393 75.9468 231.47 75.9839C231.548 76.0211 231.631 76.0402 231.715 76.0402C231.884 76.0402 232.046 75.9623 232.166 75.8237C232.286 75.6851 232.353 75.497 232.353 75.301V72.1597H235.067C235.151 72.1597 235.234 72.1405 235.312 72.1034C235.389 72.0662 235.459 72.0118 235.519 71.9431C235.578 71.8745 235.625 71.793 235.657 71.7033C235.689 71.6137 235.706 71.5175 235.706 71.4205C235.706 71.3234 235.689 71.2273 235.657 71.1376C235.625 71.0479 235.578 70.9664 235.519 70.8978C235.459 70.8291 235.389 70.7747 235.312 70.7375C235.234 70.7004 235.151 70.6813 235.067 70.6813L235.067 70.6813Z" fill="white"/>
<path d="M94.2362 79.8866C98.6448 79.8866 102.219 75.7501 102.219 70.6474C102.219 65.5447 98.6448 61.4082 94.2362 61.4082C89.8277 61.4082 86.2539 65.5447 86.2539 70.6474C86.2539 75.7501 89.8277 79.8866 94.2362 79.8866Z" fill="#1F454E"/>
<path d="M97.5511 69.8708H94.8371V66.7294C94.8371 66.6324 94.8206 66.5362 94.7885 66.4466C94.7564 66.3569 94.7094 66.2754 94.6501 66.2067C94.5908 66.1381 94.5204 66.0837 94.4429 66.0465C94.3654 66.0094 94.2824 65.9902 94.1985 65.9902C94.1147 65.9902 94.0316 66.0094 93.9541 66.0465C93.8767 66.0837 93.8063 66.1381 93.7469 66.2067C93.6876 66.2754 93.6406 66.3569 93.6085 66.4466C93.5764 66.5362 93.5599 66.6324 93.5599 66.7294V69.8708H90.8459C90.762 69.8708 90.679 69.8899 90.6015 69.927C90.524 69.9642 90.4536 70.0186 90.3943 70.0873C90.335 70.1559 90.288 70.2374 90.2559 70.3271C90.2238 70.4167 90.2073 70.5129 90.2073 70.6099C90.2073 70.806 90.2746 70.994 90.3943 71.1326C90.5141 71.2713 90.6765 71.3491 90.8459 71.3491H93.5599V74.4904C93.5599 74.5875 93.5764 74.6836 93.6085 74.7733C93.6406 74.863 93.6876 74.9445 93.7469 75.0131C93.8062 75.0818 93.8766 75.1362 93.9541 75.1734C94.0316 75.2105 94.1146 75.2296 94.1985 75.2296C94.2824 75.2296 94.3654 75.2105 94.4429 75.1734C94.5204 75.1362 94.5908 75.0818 94.6501 75.0131C94.7094 74.9445 94.7564 74.863 94.7885 74.7733C94.8206 74.6837 94.8371 74.5875 94.8371 74.4905V71.3491H97.5511C97.635 71.3491 97.718 71.33 97.7955 71.2928C97.873 71.2557 97.9434 71.2012 98.0027 71.1326C98.062 71.064 98.1091 70.9825 98.1412 70.8928C98.1732 70.8031 98.1898 70.707 98.1898 70.6099C98.1898 70.4139 98.1225 70.2259 98.0027 70.0872C97.883 69.9486 97.7205 69.8707 97.5511 69.8707V69.8708Z" fill="white"/>
<path d="M153.998 57.8847C154.144 58.3946 154.191 58.9352 154.137 59.4685C154.082 60.0018 153.928 60.5149 153.683 60.9714C153.439 61.428 153.111 61.8171 152.723 62.1112C152.335 62.4053 151.896 62.5974 151.437 62.6738L147.746 91.8349L141.691 88.4122L147.781 59.3039C147.721 58.4024 147.949 57.5069 148.422 56.787C148.894 56.0671 149.578 55.5728 150.345 55.3979C151.111 55.223 151.906 55.3795 152.58 55.8379C153.253 56.2962 153.758 57.0245 153.998 57.8847L153.998 57.8847Z" fill="#9E616A"/>
<path d="M109.914 151.279C110.183 150.842 110.367 150.342 110.451 149.814C110.536 149.286 110.519 148.743 110.402 148.223C110.286 147.703 110.072 147.219 109.777 146.805C109.481 146.391 109.111 146.057 108.692 145.827L111.182 114.809L105.967 117.903L104.338 147.793C104.05 148.634 104.039 149.567 104.306 150.417C104.574 151.266 105.101 151.973 105.788 152.403C106.475 152.832 107.275 152.955 108.035 152.748C108.796 152.541 109.464 152.018 109.914 151.279H109.914Z" fill="#9E616A"/>
<path d="M113.477 135.591L135.858 134.595L137.149 107.693H111.325L113.477 135.591Z" fill="#9E616A"/>
<path d="M109.323 230.596L113.148 230.596L114.967 213.521H109.322L109.323 230.596Z" fill="#9E616A"/>
<path d="M108.374 228.412L114.42 227.994V230.992L120.168 235.587C120.452 235.814 120.665 236.14 120.778 236.517C120.89 236.895 120.896 237.304 120.793 237.685C120.69 238.067 120.485 238.4 120.207 238.637C119.929 238.873 119.593 239.001 119.248 239.001H112.051L110.81 236.035L110.326 239.001H107.612L108.374 228.412Z" fill="#1F454E"/>
<path d="M126.334 230.596L130.158 230.596L131.977 213.521H126.333L126.334 230.596Z" fill="#9E616A"/>
<path d="M113.166 129.276C113.166 129.276 106.47 135.534 110.1 157.881C109.547 157.958 110.173 159.219 110.173 159.219L110.697 177.428L111.102 179.515L109.756 182.882L110.311 186.541L108.6 219.749L114.919 220.695L120.965 186.211L122.117 182.334L123.272 178.935L122.649 175.311L123.16 169.687L126.646 150.72L127.499 183.614L126.308 186.755L126.971 190.202L125.495 192.032L124.911 222.809L131.649 223.174L137.223 192.148L136.791 188.189L137.533 185.262V178.424L138.803 175.197L141.572 157.6C141.572 157.6 142.407 143.847 136.312 127.662L113.166 129.276Z" fill="#454747"/>
<path d="M115.895 85.3359C115.895 85.3359 107.437 87.2721 105.98 95.6211C104.523 103.97 103.585 122.863 103.585 122.863L103.904 125.494L112.086 127.69L117.308 101.218L115.895 85.3359Z" fill="#CED1D2"/>
<path d="M135.198 88.1539C135.198 88.1539 136.055 86.7634 140.856 86.5489C141.054 86.5401 140.809 86.0862 140.809 86.0862L143.118 73.0234L150.813 77.9546L149.514 91.6492L136.87 108.295L135.198 88.1539Z" fill="#CED1D2"/>
<path d="M130.401 127.096C126.779 127.097 121.326 126.634 113.117 125.223C112.588 125.131 112.099 124.845 111.72 124.408C111.342 123.971 111.094 123.405 111.013 122.794C110.745 122.466 110.57 122.051 110.513 121.604C110.456 121.158 110.519 120.702 110.694 120.299L110.702 120.281L110.516 120.028C110.228 119.637 110.059 119.147 110.034 118.634C110.01 118.121 110.131 117.613 110.38 117.188L107.838 96.1375C107.58 94.0471 107.975 91.9188 108.952 90.1353C109.928 88.3519 111.423 87.0304 113.166 86.4086L114.105 86.0703L117.654 80.6973L117.724 80.6982L129.117 80.8738L132.815 86.3083L138.792 87.9395L138.807 88.0448L140.195 97.3253C140.917 102.152 139.261 104.051 137.149 108.296L137.769 120.217L138.05 120.808C138.206 121.136 138.259 121.516 138.198 121.884C138.137 122.251 137.968 122.582 137.718 122.82C137.907 123.444 137.92 124.121 137.755 124.753L137.609 125.312C137.609 125.329 137.57 125.556 137.255 125.833C136.686 126.333 135.052 127.096 130.401 127.096Z" fill="#CED1D2"/>
<path d="M125.385 228.412L131.431 227.994V230.992L137.179 235.587C137.463 235.814 137.676 236.14 137.789 236.517C137.901 236.895 137.907 237.304 137.804 237.685C137.701 238.067 137.496 238.4 137.218 238.637C136.94 238.873 136.604 239.001 136.259 239.001H129.062L127.821 236.035L127.337 239.001H124.623L125.385 228.412Z" fill="#1F454E"/>
<path d="M131.735 68.9878C132.525 63.3517 129.218 58.0413 124.349 57.1267C119.479 56.2121 114.891 60.0397 114.101 65.6758C113.311 71.3119 116.618 76.6223 121.487 77.5369C126.357 78.4515 130.945 74.6239 131.735 68.9878Z" fill="#9E616A"/>
<path d="M128.141 57.2314C124.867 54.6253 121.984 54.2284 119.616 54.9675C119.309 54.4179 118.879 53.9754 118.371 53.6876C116.524 48.3009 110.903 45.0659 106.079 46.6385C101.225 48.2213 97.8747 54.4458 98.7883 60.1873C99.3544 63.7461 101.289 66.8278 102.068 70.3325C103.574 77.1171 99.899 84.8887 94.1494 87.0757C99.5932 88.3409 105.586 84.4921 107.539 78.4759C108.487 75.5538 108.544 72.3633 108.665 69.2448C108.697 67.0923 108.924 64.9497 109.345 62.8525C109.553 61.9117 109.848 60.9992 110.224 60.1307C111.042 58.2217 112.401 56.6952 114.075 55.8061C113.925 56.3425 113.887 56.9125 113.965 57.469C114.043 58.0255 114.235 58.5526 114.523 59.0067C113.247 60.8578 112.552 62.8597 112.552 64.0585C109.899 69.669 113.692 74.4882 118.539 77.5578C120.473 78.7886 122.705 79.2391 124.884 78.8381L125.087 77.8361L125.362 78.7387L126.279 81.7647C127.337 82.3571 128.386 83.0066 129.426 83.713C129.031 81.5658 128.711 79.4227 128.491 77.3272C128.187 74.4751 129.248 70.2291 130.014 67.647C130.488 66.0556 130.732 64.3842 130.735 62.7007V62.6271L131.48 65.3985L134.194 64.0585C133.689 60.7066 134.194 56.9013 128.141 57.2314Z" fill="#475252"/>
<path d="M239.752 239.513H41.2476C41.1374 239.513 41.032 239.462 40.9543 239.371C40.8766 239.281 40.833 239.159 40.833 239.031C40.833 238.904 40.8766 238.781 40.9543 238.691C41.032 238.601 41.1374 238.549 41.2476 238.549H239.752C239.862 238.549 239.968 238.601 240.045 238.691C240.123 238.781 240.167 238.904 240.167 239.031C240.167 239.159 240.123 239.281 240.045 239.371C239.968 239.462 239.862 239.513 239.752 239.513Z" fill="#F6FCFD"/>
<path d="M93.3237 143.068C97.7322 143.068 101.306 138.932 101.306 133.829C101.306 128.726 97.7322 124.59 93.3237 124.59C88.9151 124.59 85.3413 128.726 85.3413 133.829C85.3413 138.932 88.9151 143.068 93.3237 143.068Z" fill="#E6E6E6"/>
<path d="M213.427 128.519H185.429C184.564 128.518 183.734 128.119 183.123 127.411C182.511 126.703 182.167 125.743 182.166 124.741V107.091C182.167 106.09 182.511 105.13 183.123 104.422C183.734 103.714 184.564 103.316 185.429 103.314H213.427C214.292 103.316 215.121 103.714 215.733 104.422C216.345 105.13 216.689 106.09 216.69 107.091V124.741C216.689 125.743 216.345 126.703 215.733 127.411C215.121 128.119 214.292 128.518 213.427 128.519Z" fill="#B1CCCC"/>
<path d="M213.839 121.348C216.18 121.348 218.078 119.151 218.078 116.442C218.078 113.732 216.18 111.535 213.839 111.535C211.498 111.535 209.6 113.732 209.6 116.442C209.6 119.151 211.498 121.348 213.839 121.348Z" fill="#1F454E"/>
<path d="M215.599 116.03H214.158V114.361C214.158 114.31 214.149 114.259 214.132 114.211C214.115 114.163 214.09 114.12 214.059 114.084C214.027 114.047 213.99 114.018 213.949 113.999C213.908 113.979 213.864 113.969 213.819 113.969C213.729 113.969 213.643 114.01 213.579 114.084C213.516 114.157 213.48 114.257 213.48 114.361V116.03H212.039C211.949 116.03 211.862 116.071 211.799 116.145C211.735 116.218 211.699 116.318 211.699 116.422C211.699 116.474 211.708 116.525 211.725 116.572C211.742 116.62 211.767 116.663 211.799 116.7C211.83 116.736 211.868 116.765 211.909 116.785C211.95 116.804 211.994 116.815 212.039 116.815H213.48V118.483C213.48 118.534 213.489 118.585 213.506 118.633C213.523 118.681 213.548 118.724 213.579 118.76C213.611 118.797 213.648 118.826 213.689 118.846C213.73 118.865 213.775 118.875 213.819 118.875C213.909 118.875 213.995 118.834 214.059 118.76C214.122 118.687 214.158 118.587 214.158 118.483V116.815H215.599C215.689 116.815 215.776 116.773 215.839 116.7C215.903 116.626 215.939 116.526 215.939 116.422C215.939 116.371 215.93 116.319 215.913 116.272C215.896 116.224 215.871 116.181 215.839 116.145C215.808 116.108 215.77 116.079 215.729 116.059C215.688 116.04 215.644 116.03 215.599 116.03L215.599 116.03Z" fill="white"/>
<path d="M224.833 123.51H201.76C200.781 123.509 199.842 123.058 199.15 122.256C198.457 121.455 198.068 120.368 198.067 119.235V103.294C198.067 103.085 198.139 102.885 198.267 102.738C198.394 102.591 198.567 102.508 198.747 102.508C198.927 102.508 199.1 102.591 199.228 102.738C199.355 102.885 199.427 103.085 199.428 103.294V107.563L226.228 110.383C226.763 110.394 227.273 110.647 227.649 111.089C228.024 111.531 228.235 112.126 228.235 112.745C228.235 112.794 228.232 112.843 228.224 112.891L226.873 121.228C226.855 121.84 226.632 122.42 226.251 122.845C225.871 123.271 225.362 123.509 224.833 123.51ZM199.428 109.145V119.235C199.428 119.951 199.674 120.637 200.112 121.143C200.549 121.649 201.142 121.934 201.76 121.935H224.833C225.013 121.935 225.186 121.851 225.314 121.704C225.442 121.556 225.513 121.356 225.514 121.147C225.514 121.098 225.517 121.05 225.525 121.002L226.873 112.685C226.859 112.487 226.782 112.302 226.656 112.168C226.53 112.033 226.365 111.958 226.194 111.958C226.173 111.958 226.153 111.957 226.132 111.954L199.428 109.145Z" fill="#1F454E"/>
<path d="M195.63 130.862C196.256 130.862 196.764 130.274 196.764 129.549C196.764 128.824 196.256 128.236 195.63 128.236C195.003 128.236 194.495 128.824 194.495 129.549C194.495 130.274 195.003 130.862 195.63 130.862Z" fill="#1F454E"/>
<path d="M223.926 130.862C224.552 130.862 225.06 130.274 225.06 129.549C225.06 128.824 224.552 128.236 223.926 128.236C223.299 128.236 222.792 128.824 222.792 129.549C222.792 130.274 223.299 130.862 223.926 130.862Z" fill="#1F454E"/>
<path d="M225.06 128.235H194.722C194.542 128.235 194.369 128.152 194.241 128.005C194.113 127.857 194.042 127.657 194.042 127.448C194.042 127.239 194.113 127.039 194.241 126.891C194.369 126.743 194.542 126.66 194.722 126.66H225.06C225.241 126.66 225.414 126.743 225.541 126.891C225.669 127.039 225.741 127.239 225.741 127.448C225.741 127.657 225.669 127.857 225.541 128.005C225.414 128.152 225.241 128.235 225.06 128.235Z" fill="#1F454E"/>
<path d="M200.562 103.817H194.664C194.484 103.817 194.311 103.734 194.184 103.586C194.057 103.438 193.985 103.238 193.985 103.03C193.985 102.821 194.057 102.621 194.184 102.474C194.311 102.326 194.484 102.243 194.664 102.242H200.562C200.742 102.243 200.915 102.326 201.042 102.474C201.169 102.621 201.241 102.821 201.241 103.03C201.241 103.238 201.169 103.438 201.042 103.586C200.915 103.734 200.742 103.817 200.562 103.817Z" fill="#C9EFF8"/>
<path d="M205.293 127.834C205.131 127.834 204.973 127.767 204.85 127.644L200.377 123.195C200.309 123.127 200.253 123.045 200.213 122.953C200.172 122.86 200.148 122.76 200.141 122.657C200.134 122.553 200.145 122.449 200.173 122.351C200.201 122.253 200.245 122.161 200.304 122.083C200.362 122.004 200.433 121.94 200.513 121.893C200.593 121.846 200.68 121.818 200.769 121.811C200.858 121.803 200.948 121.816 201.033 121.848C201.118 121.881 201.196 121.932 201.264 122L205.737 126.449C205.843 126.554 205.918 126.693 205.952 126.849C205.987 127.005 205.98 127.169 205.932 127.32C205.883 127.471 205.796 127.601 205.682 127.693C205.568 127.785 205.432 127.834 205.293 127.834V127.834Z" fill="#1F454E"/>
<path d="M206.236 123.026C206.146 123.026 206.058 123.005 205.975 122.966C205.893 122.926 205.818 122.868 205.755 122.795C205.691 122.722 205.641 122.635 205.607 122.539C205.573 122.444 205.555 122.342 205.555 122.238V109.594C205.555 109.385 205.627 109.185 205.755 109.037C205.882 108.89 206.055 108.807 206.236 108.807C206.416 108.807 206.589 108.89 206.717 109.037C206.844 109.185 206.916 109.385 206.916 109.594V122.238C206.916 122.341 206.899 122.444 206.864 122.539C206.83 122.635 206.78 122.722 206.717 122.795C206.654 122.868 206.579 122.926 206.496 122.966C206.414 123.005 206.325 123.026 206.236 123.026Z" fill="#1F454E"/>
<path d="M220.611 123.026C220.521 123.026 220.433 123.006 220.35 122.966C220.268 122.927 220.193 122.869 220.13 122.796C220.066 122.723 220.016 122.636 219.982 122.54C219.948 122.445 219.93 122.342 219.93 122.239V110.645C219.931 110.437 220.002 110.237 220.13 110.089C220.258 109.942 220.43 109.859 220.611 109.859C220.791 109.859 220.964 109.942 221.091 110.089C221.219 110.237 221.291 110.437 221.291 110.645V122.239C221.291 122.342 221.274 122.445 221.239 122.54C221.205 122.636 221.155 122.723 221.092 122.796C221.029 122.869 220.954 122.927 220.871 122.966C220.789 123.006 220.7 123.026 220.611 123.026Z" fill="#5CCEEB"/>
</g>
<defs>
<clipPath id="clip0_1680_12926">
<rect width="281" height="239.514" fill="white"/>
</clipPath>
</defs>
</svg>
