<svg width="136" height="24" viewBox="0 0 136 24" fill="none" xmlns="http://www.w3.org/2000/svg">
<path d="M13.7299 3.51014L15.4899 7.03014C15.7299 7.52014 16.3699 7.99014 16.9099 8.08014L20.0999 8.61014C22.1399 8.95014 22.6199 10.4301 21.1499 11.8901L18.6699 14.3701C18.2499 14.7901 18.0199 15.6001 18.1499 16.1801L18.8599 19.2501C19.4199 21.6801 18.1299 22.6201 15.9799 21.3501L12.9899 19.5801C12.4499 19.2601 11.5599 19.2601 11.0099 19.5801L8.01991 21.3501C5.87991 22.6201 4.57991 21.6701 5.13991 19.2501L5.84991 16.1801C5.97991 15.6001 5.74991 14.7901 5.32991 14.3701L2.84991 11.8901C1.38991 10.4301 1.85991 8.95014 3.89991 8.61014L7.08991 8.08014C7.61991 7.99014 8.25991 7.52014 8.49991 7.03014L10.2599 3.51014C11.2199 1.60014 12.7799 1.60014 13.7299 3.51014Z" stroke="#FF8181" stroke-width="1.5" stroke-linecap="round" stroke-linejoin="round"/>
<path d="M41.7299 3.51014L43.4899 7.03014C43.7299 7.52014 44.3699 7.99014 44.9099 8.08014L48.0999 8.61014C50.1399 8.95014 50.6199 10.4301 49.1499 11.8901L46.6699 14.3701C46.2499 14.7901 46.0199 15.6001 46.1499 16.1801L46.8599 19.2501C47.4199 21.6801 46.1299 22.6201 43.9799 21.3501L40.9899 19.5801C40.4499 19.2601 39.5599 19.2601 39.0099 19.5801L36.0199 21.3501C33.8799 22.6201 32.5799 21.6701 33.1399 19.2501L33.8499 16.1801C33.9799 15.6001 33.7499 14.7901 33.3299 14.3701L30.8499 11.8901C29.3899 10.4301 29.8599 8.95014 31.8999 8.61014L35.0899 8.08014C35.6199 7.99014 36.2599 7.52014 36.4999 7.03014L38.2599 3.51014C39.2199 1.60014 40.7799 1.60014 41.7299 3.51014Z" stroke="#FF8181" stroke-width="1.5" stroke-linecap="round" stroke-linejoin="round"/>
<path d="M69.7299 3.51014L71.4899 7.03014C71.7299 7.52014 72.3699 7.99014 72.9099 8.08014L76.0999 8.61014C78.1399 8.95014 78.6199 10.4301 77.1499 11.8901L74.6699 14.3701C74.2499 14.7901 74.0199 15.6001 74.1499 16.1801L74.8599 19.2501C75.4199 21.6801 74.1299 22.6201 71.9799 21.3501L68.9899 19.5801C68.4499 19.2601 67.5599 19.2601 67.0099 19.5801L64.0199 21.3501C61.8799 22.6201 60.5799 21.6701 61.1399 19.2501L61.8499 16.1801C61.9799 15.6001 61.7499 14.7901 61.3299 14.3701L58.8499 11.8901C57.3899 10.4301 57.8599 8.95014 59.8999 8.61014L63.0899 8.08014C63.6199 7.99014 64.2599 7.52014 64.4999 7.03014L66.2599 3.51014C67.2199 1.60014 68.7799 1.60014 69.7299 3.51014Z" stroke="#FF8181" stroke-width="1.5" stroke-linecap="round" stroke-linejoin="round"/>
<path d="M97.7299 3.51014L99.4899 7.03014C99.7299 7.52014 100.37 7.99014 100.91 8.08014L104.1 8.61014C106.14 8.95014 106.62 10.4301 105.15 11.8901L102.67 14.3701C102.25 14.7901 102.02 15.6001 102.15 16.1801L102.86 19.2501C103.42 21.6801 102.13 22.6201 99.9799 21.3501L96.9899 19.5801C96.4499 19.2601 95.5599 19.2601 95.0099 19.5801L92.0199 21.3501C89.8799 22.6201 88.5799 21.6701 89.1399 19.2501L89.8499 16.1801C89.9799 15.6001 89.7499 14.7901 89.3299 14.3701L86.8499 11.8901C85.3899 10.4301 85.8599 8.95014 87.8999 8.61014L91.0899 8.08014C91.6199 7.99014 92.2599 7.52014 92.4999 7.03014L94.2599 3.51014C95.2199 1.60014 96.7799 1.60014 97.7299 3.51014Z" stroke="#FF8181" stroke-width="1.5" stroke-linecap="round" stroke-linejoin="round"/>
<path d="M125.73 3.51014L127.49 7.03014C127.73 7.52014 128.37 7.99014 128.91 8.08014L132.1 8.61014C134.14 8.95014 134.62 10.4301 133.15 11.8901L130.67 14.3701C130.25 14.7901 130.02 15.6001 130.15 16.1801L130.86 19.2501C131.42 21.6801 130.13 22.6201 127.98 21.3501L124.99 19.5801C124.45 19.2601 123.56 19.2601 123.01 19.5801L120.02 21.3501C117.88 22.6201 116.58 21.6701 117.14 19.2501L117.85 16.1801C117.98 15.6001 117.75 14.7901 117.33 14.3701L114.85 11.8901C113.39 10.4301 113.86 8.95014 115.9 8.61014L119.09 8.08014C119.62 7.99014 120.26 7.52014 120.5 7.03014L122.26 3.51014C123.22 1.60014 124.78 1.60014 125.73 3.51014Z" stroke="#FFD9D9" stroke-width="1.5" stroke-linecap="round" stroke-linejoin="round"/>
</svg>
