<svg width="28" height="28" viewBox="0 0 28 28" fill="none" xmlns="http://www.w3.org/2000/svg">
<path d="M14.8 10.9993C17.3773 10.9993 19.4666 8.91001 19.4666 6.33268C19.4666 3.75535 17.3773 1.66602 14.8 1.66602C12.2226 1.66602 10.1333 3.75535 10.1333 6.33268C10.1333 8.91001 12.2226 10.9993 14.8 10.9993Z" fill="#5CCEEB" stroke="#6A7B7B" stroke-width="2" stroke-linecap="round" stroke-linejoin="round"/>
<path d="M1.46655 26.3327C1.46655 20.4416 6.83915 15.666 13.4666 15.666" stroke="#6A7B7B" stroke-width="2" stroke-linecap="round" stroke-linejoin="round"/>
<path d="M20.0332 17.666C18.6157 17.666 17.4666 19.0051 17.4666 20.6569C17.4666 23.6478 20.4999 26.3669 22.1332 26.9993C23.7666 26.3669 26.7999 23.6478 26.7999 20.6569C26.7999 19.0051 25.6508 17.666 24.2332 17.666C23.3652 17.666 22.5977 18.1682 22.1332 18.9368C21.6688 18.1682 20.9013 17.666 20.0332 17.666Z" fill="#5CCEEB" stroke="#6A7B7B" stroke-width="2" stroke-linecap="round" stroke-linejoin="round"/>
</svg>
