<svg width="22" height="27" viewBox="0 0 22 27" fill="none" xmlns="http://www.w3.org/2000/svg">
<path d="M3.28567 0C2.46728 0 1.68242 0.309047 1.10374 0.859154C0.525052 1.40926 0.199951 2.15536 0.199951 2.93333V4.4C0.199951 11.7333 3.28567 16.1333 11 16.1333V11.7333L18.7142 17.6L11 23.4667V19.0667C6.09367 19.0667 2.49881 17.82 0.199951 15.136V23.4667C0.199951 24.2446 0.525052 24.9907 1.10374 25.5408C1.68242 26.091 2.46728 26.4 3.28567 26.4H18.7142C19.5326 26.4 20.3175 26.091 20.8962 25.5408C21.4748 24.9907 21.8 24.2446 21.8 23.4667V2.93333C21.8 2.15536 21.4748 1.40926 20.8962 0.859154C20.3175 0.309047 19.5326 0 18.7142 0H3.28567Z" fill="#5CCEEB"/>
</svg>
