<svg width="80" height="80" viewBox="0 0 80 80" fill="none" xmlns="http://www.w3.org/2000/svg">
<path d="M56.6666 61.4331H43.3333L28.4999 71.2997C26.2999 72.7663 23.3333 71.1998 23.3333 68.5332V61.4331C13.3333 61.4331 6.66663 54.7665 6.66663 44.7665V24.7663C6.66663 14.7663 13.3333 8.09961 23.3333 8.09961H56.6666C66.6666 8.09961 73.3333 14.7663 73.3333 24.7663V44.7665C73.3333 54.7665 66.6666 61.4331 56.6666 61.4331Z" fill="#3D899D" stroke="#DEF5FB" stroke-width="1.5" stroke-miterlimit="10" stroke-linecap="round" stroke-linejoin="round"/>
<path d="M40 37.8672V37.1673C40 34.9007 41.4001 33.7006 42.8001 32.7339C44.1668 31.8006 45.5333 30.6006 45.5333 28.4006C45.5333 25.334 43.0667 22.8672 40 22.8672C36.9334 22.8672 34.4668 25.334 34.4668 28.4006" fill="#3D899D"/>
<path d="M40 37.8672V37.1673C40 34.9007 41.4001 33.7006 42.8001 32.7339C44.1668 31.8006 45.5333 30.6006 45.5333 28.4006C45.5333 25.334 43.0667 22.8672 40 22.8672C36.9334 22.8672 34.4668 25.334 34.4668 28.4006" stroke="#DEF5FB" stroke-width="1.5" stroke-linecap="round" stroke-linejoin="round"/>
<path fill-rule="evenodd" clip-rule="evenodd" d="M39.985 45.8327H40.015Z" fill="#3D899D"/>
<path d="M39.985 45.8327H40.015" stroke="#DEF5FB" stroke-width="1.5" stroke-linecap="round" stroke-linejoin="round"/>
</svg>
